<?xml version="1.0" encoding="UTF-8"?>
<svg version="1.1" xmlns="http://www.w3.org/2000/svg" width="773" height="693">
<path d="M0 0 C255.09 0 510.18 0 773 0 C773 228.69 773 457.38 773 693 C517.91 693 262.82 693 0 693 C0 464.31 0 235.62 0 0 Z " fill="#FEFEFE" transform="translate(0,0)"/>
<path d="M0 0 C63.03 0 126.06 0 191 0 C191 12.87 191 25.74 191 39 C192.32 39 193.64 39 195 39 C195 39.99 195 40.98 195 42 C193.68 42 192.36 42 191 42 C191 186.87 191 331.74 191 481 C127.97 481 64.94 481 0 481 C0 336.13 0 191.26 0 42 C-1.32 42 -2.64 42 -4 42 C-4 41.01 -4 40.02 -4 39 C-2.68 39 -1.36 39 0 39 C0 26.13 0 13.26 0 0 Z " fill="#DFDDDD" transform="translate(291,131)"/>
<path d="M0 0 C63.03 0 126.06 0 191 0 C191.06058594 16.49613281 191.12117187 32.99226563 191.18359375 49.98828125 C191.22406707 60.41080981 191.26478885 70.83333641 191.30664062 81.25585938 C191.32860173 86.72875949 191.35051254 92.2016598 191.37231445 97.67456055 C191.37641723 98.70350784 191.37641723 98.70350784 191.3806029 99.75324196 C191.42470433 110.83614531 191.46531903 121.91905886 191.50465261 133.00198004 C191.54507915 144.37106515 191.58931091 155.74012989 191.63687855 167.10918778 C191.663484 173.49710029 191.68833721 179.88500902 191.70907402 186.2729435 C191.72862944 192.28023397 191.75276997 198.28748823 191.78049088 204.2947464 C191.78986711 206.50429567 191.79754032 208.71385289 191.80341911 210.92341423 C191.81167054 213.93081975 191.82594457 216.93813715 191.84178162 219.94551086 C191.84275972 220.8277995 191.84373783 221.71008814 191.84474558 222.61911279 C191.86772048 225.99192278 191.92608001 228.77824003 193 232 C192.34 232 191.68 232 191 232 C191 314.17 191 396.34 191 481 C127.97 481 64.94 481 0 481 C0 398.83 0 316.66 0 232 C-1.98 232 -3.96 232 -6 232 C-6 231.01 -6 230.02 -6 229 C-4.02 229 -2.04 229 0 229 C0 153.43 0 77.86 0 0 Z " fill="#DFDDDD" transform="translate(501,131)"/>
<path d="M0 0 C63.03 0 126.06 0 191 0 C191.06058594 16.49613281 191.12117187 32.99226563 191.18359375 49.98828125 C191.22406707 60.41080981 191.26478885 70.83333641 191.30664062 81.25585938 C191.32860173 86.72875949 191.35051254 92.2016598 191.37231445 97.67456055 C191.37641723 98.70350784 191.37641723 98.70350784 191.3806029 99.75324196 C191.42470433 110.83614531 191.46531903 121.91905886 191.50465261 133.00198004 C191.54507915 144.37106515 191.58931091 155.74012989 191.63687855 167.10918778 C191.663484 173.49710029 191.68833721 179.88500902 191.70907402 186.2729435 C191.72862944 192.28023397 191.75276997 198.28748823 191.78049088 204.2947464 C191.78986711 206.50429567 191.79754032 208.71385289 191.80341911 210.92341423 C191.81167054 213.93081975 191.82594457 216.93813715 191.84178162 219.94551086 C191.84275972 220.8277995 191.84373783 221.71008814 191.84474558 222.61911279 C191.86772048 225.99192278 191.92608001 228.77824003 193 232 C192.34 232 191.68 232 191 232 C191 314.17 191 396.34 191 481 C127.97 481 64.94 481 0 481 C0 398.83 0 316.66 0 232 C-1.98 232 -3.96 232 -6 232 C-6 231.01 -6 230.02 -6 229 C-4.02 229 -2.04 229 0 229 C0 153.43 0 77.86 0 0 Z " fill="#DFDDDD" transform="translate(81,131)"/>
<path d="M0 0 C255.09 0 510.18 0 773 0 C773 228.69 773 457.38 773 693 C517.91 693 262.82 693 0 693 C0 464.31 0 235.62 0 0 Z M20 20 C20 235.49 20 450.98 20 673 C261.89 673 503.78 673 753 673 C753 457.51 753 242.02 753 20 C511.11 20 269.22 20 20 20 Z " fill="#FFFFFF" transform="translate(0,0)"/>
<path d="M0 0 C40.92 0 81.84 0 124 0 C124 49.17 124 98.34 124 149 C74.83 149 25.66 149 -25 149 C-25 108.08 -25 67.16 -25 25 C-16.75 25 -8.5 25 0 25 C0 16.75 0 8.5 0 0 Z " fill="#E5EFE1" transform="translate(547,197)"/>
<path d="M0 0 C40.92 0 81.84 0 124 0 C124 49.17 124 98.34 124 149 C74.83 149 25.66 149 -25 149 C-25 108.08 -25 67.16 -25 25 C-16.75 25 -8.5 25 0 25 C0 16.75 0 8.5 0 0 Z " fill="#E5EFE1" transform="translate(337,197)"/>
<path d="M0 0 C40.92 0 81.84 0 124 0 C124 49.17 124 98.34 124 149 C74.83 149 25.66 149 -25 149 C-25 108.08 -25 67.16 -25 25 C-16.75 25 -8.5 25 0 25 C0 16.75 0 8.5 0 0 Z " fill="#E5EFE1" transform="translate(127,197)"/>
<path d="M0 0 C241.89 0 483.78 0 733 0 C733 215.49 733 430.98 733 653 C491.11 653 249.22 653 0 653 C0 437.51 0 222.02 0 0 Z M27 3 C27 10.92 27 18.84 27 27 C19.08 27 11.16 27 3 27 C3 232.59 3 438.18 3 650 C242.91 650 482.82 650 730 650 C730 436.49 730 222.98 730 3 C498.01 3 266.02 3 27 3 Z " fill="#4376BB" transform="translate(20,20)"/>
<path d="M0 0 C228.69 0 457.38 0 693 0 C693 195.69 693 391.38 693 593 C464.31 593 235.62 593 0 593 C0 397.31 0 201.62 0 0 Z M27 3 C27 10.92 27 18.84 27 27 C19.08 27 11.16 27 3 27 C3 212.79 3 398.58 3 590 C229.71 590 456.42 590 690 590 C690 396.29 690 202.58 690 3 C471.21 3 252.42 3 27 3 Z " fill="#B3B3B3" transform="translate(40,60)"/>
<path d="M0 0 C215.49 0 430.98 0 653 0 C653 175.89 653 351.78 653 533 C437.51 533 222.02 533 0 533 C0 357.11 0 181.22 0 0 Z M27 3 C27 10.92 27 18.84 27 27 C19.08 27 11.16 27 3 27 C3 192.99 3 358.98 3 530 C216.51 530 430.02 530 650 530 C650 356.09 650 182.18 650 3 C444.41 3 238.82 3 27 3 Z " fill="#7EA1D0" transform="translate(60,100)"/>
<path d="M0 0 C8.36681519 5.20663707 14.25900767 12.112566 17.25390625 21.58984375 C19.33849405 32.47379734 17.26182049 42.11106844 11.421875 51.31640625 C5.52606728 59.32999857 -2.54116699 64.12716346 -12.33984375 65.7109375 C-23.3417731 66.66018459 -31.87255558 64.33476804 -40.5234375 57.4140625 C-48.77134378 49.68054177 -52.22447615 41.11401966 -52.65234375 29.9609375 C-52.54637581 20.44737163 -48.7832717 12.63165641 -42.33984375 5.7109375 C-30.41302565 -5.39334142 -14.40637839 -7.93673601 0 0 Z " fill="#92C44E" transform="translate(608.33984375,495.2890625)"/>
<path d="M0 0 C8.36681519 5.20663707 14.25900767 12.112566 17.25390625 21.58984375 C19.33849405 32.47379734 17.26182049 42.11106844 11.421875 51.31640625 C5.52606728 59.32999857 -2.54116699 64.12716346 -12.33984375 65.7109375 C-23.3417731 66.66018459 -31.87255558 64.33476804 -40.5234375 57.4140625 C-48.77134378 49.68054177 -52.22447615 41.11401966 -52.65234375 29.9609375 C-52.54637581 20.44737163 -48.7832717 12.63165641 -42.33984375 5.7109375 C-30.41302565 -5.39334142 -14.40637839 -7.93673601 0 0 Z " fill="#92C44E" transform="translate(403.33984375,495.2890625)"/>
<path d="M0 0 C8.36681519 5.20663707 14.25900767 12.112566 17.25390625 21.58984375 C19.33849405 32.47379734 17.26182049 42.11106844 11.421875 51.31640625 C5.52606728 59.32999857 -2.54116699 64.12716346 -12.33984375 65.7109375 C-23.3417731 66.66018459 -31.87255558 64.33476804 -40.5234375 57.4140625 C-48.77134378 49.68054177 -52.22447615 41.11401966 -52.65234375 29.9609375 C-52.54637581 20.44737163 -48.7832717 12.63165641 -42.33984375 5.7109375 C-30.41302565 -5.39334142 -14.40637839 -7.93673601 0 0 Z " fill="#92C44E" transform="translate(193.33984375,495.2890625)"/>
<path d="M0 0 C6.66732491 4.55452935 11.24458519 11.14776333 13.80859375 18.78125 C14.87587021 27.80458739 13.34169949 36.48035632 8.18359375 44.03125 C2.9332269 50.45125304 -3.92018821 54.78870384 -12.19140625 55.78125 C-13.02414062 55.88695312 -13.856875 55.99265625 -14.71484375 56.1015625 C-23.48080092 56.67926168 -30.8102183 53.6196359 -37.3984375 47.84765625 C-44.29968287 40.39431125 -46.71591719 31.88265061 -46.59375 21.82421875 C-45.49471178 13.51207533 -40.88676704 6.27313459 -34.31640625 1.18359375 C-23.49430676 -5.95819617 -11.46391619 -6.37565392 0 0 Z " fill="#8FC543" transform="translate(612.19140625,385.21875)"/>
<path d="M0 0 C6.66732491 4.55452935 11.24458519 11.14776333 13.80859375 18.78125 C14.87587021 27.80458739 13.34169949 36.48035632 8.18359375 44.03125 C2.9332269 50.45125304 -3.92018821 54.78870384 -12.19140625 55.78125 C-13.02414062 55.88695312 -13.856875 55.99265625 -14.71484375 56.1015625 C-23.48080092 56.67926168 -30.8102183 53.6196359 -37.3984375 47.84765625 C-44.29968287 40.39431125 -46.71591719 31.88265061 -46.59375 21.82421875 C-45.49471178 13.51207533 -40.88676704 6.27313459 -34.31640625 1.18359375 C-23.49430676 -5.95819617 -11.46391619 -6.37565392 0 0 Z " fill="#8FC543" transform="translate(402.19140625,385.21875)"/>
<path d="M0 0 C6.66732491 4.55452935 11.24458519 11.14776333 13.80859375 18.78125 C14.87587021 27.80458739 13.34169949 36.48035632 8.18359375 44.03125 C2.9332269 50.45125304 -3.92018821 54.78870384 -12.19140625 55.78125 C-13.02414063 55.88695312 -13.856875 55.99265625 -14.71484375 56.1015625 C-23.48080092 56.67926168 -30.8102183 53.6196359 -37.3984375 47.84765625 C-44.29968287 40.39431125 -46.71591719 31.88265061 -46.59375 21.82421875 C-45.49471178 13.51207533 -40.88676704 6.27313459 -34.31640625 1.18359375 C-23.49430676 -5.95819617 -11.46391619 -6.37565392 0 0 Z " fill="#8FC543" transform="translate(192.19140625,385.21875)"/>
<path d="M0 0 C63.03 0 126.06 0 191 0 C191 12.87 191 25.74 191 39 C192.32 39 193.64 39 195 39 C195 39.99 195 40.98 195 42 C193.68 42 192.36 42 191 42 C191 186.87 191 331.74 191 481 C127.97 481 64.94 481 0 481 C0 336.13 0 191.26 0 42 C-1.32 42 -2.64 42 -4 42 C-4 41.01 -4 40.02 -4 39 C-2.68 39 -1.36 39 0 39 C0 26.13 0 13.26 0 0 Z M25 1 C25 8.92 25 16.84 25 25 C17.08 25 9.16 25 1 25 C0.95875 27.248125 0.9175 29.49625 0.875 31.8125 C0.85179687 33.07707031 0.82859375 34.34164062 0.8046875 35.64453125 C0.72418082 39.1338024 0.72418082 39.1338024 3 42 C2.34 42 1.68 42 1 42 C1 103.71 1 165.42 1 229 C2.65 229.33 4.3 229.66 6 230 C6.33 230.66 6.66 231.32 7 232 C5.02 232 3.04 232 1 232 C1 313.84 1 395.68 1 480 C63.37 480 125.74 480 190 480 C190 335.46 190 190.92 190 42 C189.34 42 188.68 42 188 42 C188.66 41.01 189.32 40.02 190 39 C190 26.46 190 13.92 190 1 C135.55 1 81.1 1 25 1 Z " fill="#929090" transform="translate(291,131)"/>
<path d="M0 0 C63.03 0 126.06 0 191 0 C191.06058594 16.49613281 191.12117187 32.99226563 191.18359375 49.98828125 C191.22406707 60.41080981 191.26478885 70.83333641 191.30664062 81.25585938 C191.32860173 86.72875949 191.35051254 92.2016598 191.37231445 97.67456055 C191.37641723 98.70350784 191.37641723 98.70350784 191.3806029 99.75324196 C191.42470433 110.83614531 191.46531903 121.91905886 191.50465261 133.00198004 C191.54507915 144.37106515 191.58931091 155.74012989 191.63687855 167.10918778 C191.663484 173.49710029 191.68833721 179.88500902 191.70907402 186.2729435 C191.72862944 192.28023397 191.75276997 198.28748823 191.78049088 204.2947464 C191.78986711 206.50429567 191.79754032 208.71385289 191.80341911 210.92341423 C191.81167054 213.93081975 191.82594457 216.93813715 191.84178162 219.94551086 C191.84275972 220.8277995 191.84373783 221.71008814 191.84474558 222.61911279 C191.86772048 225.99192278 191.92608001 228.77824003 193 232 C192.34 232 191.68 232 191 232 C191 314.17 191 396.34 191 481 C127.97 481 64.94 481 0 481 C0 398.83 0 316.66 0 232 C-1.98 232 -3.96 232 -6 232 C-6 231.01 -6 230.02 -6 229 C-4.02 229 -2.04 229 0 229 C0 153.43 0 77.86 0 0 Z M25 1 C25 8.92 25 16.84 25 25 C17.08 25 9.16 25 1 25 C1 175.15 1 325.3 1 480 C63.37 480 125.74 480 190 480 C190 398.16 190 316.32 190 232 C188.68 232 187.36 232 186 232 C187 230 187 230 190 229 C190 153.76 190 78.52 190 1 C135.55 1 81.1 1 25 1 Z " fill="#938F8F" transform="translate(501,131)"/>
<path d="M0 0 C63.03 0 126.06 0 191 0 C191.06058594 16.49613281 191.12117187 32.99226563 191.18359375 49.98828125 C191.22406707 60.41080981 191.26478885 70.83333641 191.30664062 81.25585938 C191.32860173 86.72875949 191.35051254 92.2016598 191.37231445 97.67456055 C191.37641723 98.70350784 191.37641723 98.70350784 191.3806029 99.75324196 C191.42470433 110.83614531 191.46531903 121.91905886 191.50465261 133.00198004 C191.54507915 144.37106515 191.58931091 155.74012989 191.63687855 167.10918778 C191.663484 173.49710029 191.68833721 179.88500902 191.70907402 186.2729435 C191.72862944 192.28023397 191.75276997 198.28748823 191.78049088 204.2947464 C191.78986711 206.50429567 191.79754032 208.71385289 191.80341911 210.92341423 C191.81167054 213.93081975 191.82594457 216.93813715 191.84178162 219.94551086 C191.84275972 220.8277995 191.84373783 221.71008814 191.84474558 222.61911279 C191.86772048 225.99192278 191.92608001 228.77824003 193 232 C192.34 232 191.68 232 191 232 C191 314.17 191 396.34 191 481 C127.97 481 64.94 481 0 481 C0 398.83 0 316.66 0 232 C-1.98 232 -3.96 232 -6 232 C-6 231.01 -6 230.02 -6 229 C-4.02 229 -2.04 229 0 229 C0 153.43 0 77.86 0 0 Z M25 1 C25 8.92 25 16.84 25 25 C17.08 25 9.16 25 1 25 C1 175.15 1 325.3 1 480 C63.37 480 125.74 480 190 480 C190 398.16 190 316.32 190 232 C188.68 232 187.36 232 186 232 C187 230 187 230 190 229 C190 153.76 190 78.52 190 1 C135.55 1 81.1 1 25 1 Z " fill="#938F8F" transform="translate(81,131)"/>
<path d="M0 0 C8.36681519 5.20663707 14.25900767 12.112566 17.25390625 21.58984375 C19.33849405 32.47379734 17.26182049 42.11106844 11.421875 51.31640625 C5.52606728 59.32999857 -2.54116699 64.12716346 -12.33984375 65.7109375 C-23.3417731 66.66018459 -31.87255558 64.33476804 -40.5234375 57.4140625 C-48.77134378 49.68054177 -52.22447615 41.11401966 -52.65234375 29.9609375 C-52.54637581 20.44737163 -48.7832717 12.63165641 -42.33984375 5.7109375 C-30.41302565 -5.39334142 -14.40637839 -7.93673601 0 0 Z M-38.33984375 13.7109375 C-41.262521 17.79935497 -43.9648452 21.58595729 -44.33984375 26.7109375 C-44.40171875 27.35546875 -44.46359375 28 -44.52734375 28.6640625 C-44.93567131 35.96291769 -43.028505 42.11160067 -38.64453125 47.98046875 C-32.79673372 54.36096039 -26.02396525 57.77537028 -17.33984375 58.2109375 C-8.60225226 57.7726884 -1.89071925 54.3387217 3.96484375 47.90234375 C8.83172118 41.6112879 10.39699721 35.65498428 10.11328125 27.7109375 C9.01294577 20.42595775 5.30626291 14.39307473 -0.33984375 9.7109375 C-12.86502436 0.5779933 -28.15089372 1.19308461 -38.33984375 13.7109375 Z " fill="#94C452" transform="translate(608.33984375,495.2890625)"/>
<path d="M0 0 C8.36681519 5.20663707 14.25900767 12.112566 17.25390625 21.58984375 C19.33849405 32.47379734 17.26182049 42.11106844 11.421875 51.31640625 C5.52606728 59.32999857 -2.54116699 64.12716346 -12.33984375 65.7109375 C-23.3417731 66.66018459 -31.87255558 64.33476804 -40.5234375 57.4140625 C-48.77134378 49.68054177 -52.22447615 41.11401966 -52.65234375 29.9609375 C-52.54637581 20.44737163 -48.7832717 12.63165641 -42.33984375 5.7109375 C-30.41302565 -5.39334142 -14.40637839 -7.93673601 0 0 Z M-38.33984375 13.7109375 C-41.262521 17.79935497 -43.9648452 21.58595729 -44.33984375 26.7109375 C-44.40171875 27.35546875 -44.46359375 28 -44.52734375 28.6640625 C-44.93567131 35.96291769 -43.028505 42.11160067 -38.64453125 47.98046875 C-32.79673372 54.36096039 -26.02396525 57.77537028 -17.33984375 58.2109375 C-8.60225226 57.7726884 -1.89071925 54.3387217 3.96484375 47.90234375 C8.83172118 41.6112879 10.39699721 35.65498428 10.11328125 27.7109375 C9.01294577 20.42595775 5.30626291 14.39307473 -0.33984375 9.7109375 C-12.86502436 0.5779933 -28.15089372 1.19308461 -38.33984375 13.7109375 Z " fill="#94C452" transform="translate(403.33984375,495.2890625)"/>
<path d="M0 0 C8.36681519 5.20663707 14.25900767 12.112566 17.25390625 21.58984375 C19.33849405 32.47379734 17.26182049 42.11106844 11.421875 51.31640625 C5.52606728 59.32999857 -2.54116699 64.12716346 -12.33984375 65.7109375 C-23.3417731 66.66018459 -31.87255558 64.33476804 -40.5234375 57.4140625 C-48.77134378 49.68054177 -52.22447615 41.11401966 -52.65234375 29.9609375 C-52.54637581 20.44737163 -48.7832717 12.63165641 -42.33984375 5.7109375 C-30.41302565 -5.39334142 -14.40637839 -7.93673601 0 0 Z M-38.33984375 13.7109375 C-41.262521 17.79935497 -43.9648452 21.58595729 -44.33984375 26.7109375 C-44.40171875 27.35546875 -44.46359375 28 -44.52734375 28.6640625 C-44.93567131 35.96291769 -43.028505 42.11160067 -38.64453125 47.98046875 C-32.79673372 54.36096039 -26.02396525 57.77537028 -17.33984375 58.2109375 C-8.60225226 57.7726884 -1.89071925 54.3387217 3.96484375 47.90234375 C8.83172118 41.6112879 10.39699721 35.65498428 10.11328125 27.7109375 C9.01294577 20.42595775 5.30626291 14.39307473 -0.33984375 9.7109375 C-12.86502436 0.5779933 -28.15089372 1.19308461 -38.33984375 13.7109375 Z " fill="#94C452" transform="translate(193.33984375,495.2890625)"/>
<path d="M0 0 C49.83 0 99.66 0 151 0 C151 49.83 151 99.66 151 151 C101.17 151 51.34 151 0 151 C0 101.17 0 51.34 0 0 Z M26 1 C26 9.25 26 17.5 26 26 C17.75 26 9.5 26 1 26 C1 66.92 1 107.84 1 150 C50.17 150 99.34 150 150 150 C150 100.83 150 51.66 150 1 C109.08 1 68.16 1 26 1 Z " fill="#078B31" transform="translate(521,196)"/>
<path d="M0 0 C49.83 0 99.66 0 151 0 C151 49.83 151 99.66 151 151 C101.17 151 51.34 151 0 151 C0 101.17 0 51.34 0 0 Z M26 1 C26 9.25 26 17.5 26 26 C17.75 26 9.5 26 1 26 C1 66.92 1 107.84 1 150 C50.17 150 99.34 150 150 150 C150 100.83 150 51.66 150 1 C109.08 1 68.16 1 26 1 Z " fill="#088B31" transform="translate(311,196)"/>
<path d="M0 0 C49.83 0 99.66 0 151 0 C151 49.83 151 99.66 151 151 C101.17 151 51.34 151 0 151 C0 101.17 0 51.34 0 0 Z M26 1 C26 9.25 26 17.5 26 26 C17.75 26 9.5 26 1 26 C1 66.92 1 107.84 1 150 C50.17 150 99.34 150 150 150 C150 100.83 150 51.66 150 1 C109.08 1 68.16 1 26 1 Z " fill="#078B31" transform="translate(101,196)"/>
<path d="M0 0 C4.30210325 2.39005736 4.30210325 2.39005736 6 5 C6.77550576 8.34181756 6.98670137 11.57560215 7 15 C7.66 15 8.32 15 9 15 C9 21.27 9 27.54 9 34 C1.08 34 -6.84 34 -15 34 C-15 27.73 -15 21.46 -15 15 C-14.34 15 -13.68 15 -13 15 C-12.98582031 14.33613281 -12.97164062 13.67226563 -12.95703125 12.98828125 C-12.71288629 8.46830017 -12.46526362 5.68421121 -9.875 1.875 C-6.17121745 -0.54051036 -4.34861404 -0.76291474 0 0 Z " fill="#F9FBF5" transform="translate(594,509)"/>
<path d="M0 0 C4.30210325 2.39005736 4.30210325 2.39005736 6 5 C6.77550576 8.34181756 6.98670137 11.57560215 7 15 C7.66 15 8.32 15 9 15 C9 21.27 9 27.54 9 34 C1.08 34 -6.84 34 -15 34 C-15 27.73 -15 21.46 -15 15 C-14.34 15 -13.68 15 -13 15 C-12.98582031 14.33613281 -12.97164063 13.67226563 -12.95703125 12.98828125 C-12.71288629 8.46830017 -12.46526362 5.68421121 -9.875 1.875 C-6.17121745 -0.54051036 -4.34861404 -0.76291474 0 0 Z " fill="#F9FBF5" transform="translate(389,509)"/>
<path d="M0 0 C4.30210325 2.39005736 4.30210325 2.39005736 6 5 C6.77550576 8.34181756 6.98670137 11.57560215 7 15 C7.66 15 8.32 15 9 15 C9 21.27 9 27.54 9 34 C1.08 34 -6.84 34 -15 34 C-15 27.73 -15 21.46 -15 15 C-14.34 15 -13.68 15 -13 15 C-12.98582031 14.33613281 -12.97164062 13.67226563 -12.95703125 12.98828125 C-12.71288629 8.46830017 -12.46526362 5.68421121 -9.875 1.875 C-6.17121745 -0.54051036 -4.34861404 -0.76291474 0 0 Z " fill="#F9FBF5" transform="translate(179,509)"/>
<path d="M0 0 C6.54327705 5.13443749 10.35700637 12.27314488 11.515625 20.44140625 C12.04125881 29.60415928 9.01622723 36.65339485 3.44921875 43.85546875 C-2.68930684 50.47378715 -9.7397829 53.34515219 -18.625 53.9375 C-26.65513863 53.81629036 -34.04081335 50.53817777 -39.69140625 44.86328125 C-46.07641027 37.86510357 -49.23870239 31.47028366 -49.09375 21.8671875 C-48.09348559 11.90026717 -42.65244015 4.7893168 -35.23046875 -1.54296875 C-24.36468686 -9.70581982 -10.83231938 -7.09622658 0 0 Z M-39.875 6.6875 C-42.79767725 10.77591747 -45.50000145 14.56251979 -45.875 19.6875 C-45.936875 20.33203125 -45.99875 20.9765625 -46.0625 21.640625 C-46.47082756 28.93948019 -44.56366125 35.08816317 -40.1796875 40.95703125 C-34.33188997 47.33752289 -27.5591215 50.75193278 -18.875 51.1875 C-10.13740851 50.7492509 -3.4258755 47.3152842 2.4296875 40.87890625 C7.29656493 34.5878504 8.86184096 28.63154678 8.578125 20.6875 C7.47778952 13.40252025 3.77110666 7.36963723 -1.875 2.6875 C-14.40018061 -6.4454442 -29.68604997 -5.83035289 -39.875 6.6875 Z " fill="#F3F8EC" transform="translate(609.875,502.3125)"/>
<path d="M0 0 C6.54327705 5.13443749 10.35700637 12.27314488 11.515625 20.44140625 C12.04125881 29.60415928 9.01622723 36.65339485 3.44921875 43.85546875 C-2.68930684 50.47378715 -9.7397829 53.34515219 -18.625 53.9375 C-26.65513863 53.81629036 -34.04081335 50.53817777 -39.69140625 44.86328125 C-46.07641027 37.86510357 -49.23870239 31.47028366 -49.09375 21.8671875 C-48.09348559 11.90026717 -42.65244015 4.7893168 -35.23046875 -1.54296875 C-24.36468686 -9.70581982 -10.83231938 -7.09622658 0 0 Z M-39.875 6.6875 C-42.79767725 10.77591747 -45.50000145 14.56251979 -45.875 19.6875 C-45.936875 20.33203125 -45.99875 20.9765625 -46.0625 21.640625 C-46.47082756 28.93948019 -44.56366125 35.08816317 -40.1796875 40.95703125 C-34.33188997 47.33752289 -27.5591215 50.75193278 -18.875 51.1875 C-10.13740851 50.7492509 -3.4258755 47.3152842 2.4296875 40.87890625 C7.29656493 34.5878504 8.86184096 28.63154678 8.578125 20.6875 C7.47778952 13.40252025 3.77110666 7.36963723 -1.875 2.6875 C-14.40018061 -6.4454442 -29.68604997 -5.83035289 -39.875 6.6875 Z " fill="#F3F8EC" transform="translate(404.875,502.3125)"/>
<path d="M0 0 C6.54327705 5.13443749 10.35700637 12.27314488 11.515625 20.44140625 C12.04125881 29.60415928 9.01622723 36.65339485 3.44921875 43.85546875 C-2.68930684 50.47378715 -9.7397829 53.34515219 -18.625 53.9375 C-26.65513863 53.81629036 -34.04081335 50.53817777 -39.69140625 44.86328125 C-46.07641027 37.86510357 -49.23870239 31.47028366 -49.09375 21.8671875 C-48.09348559 11.90026717 -42.65244015 4.7893168 -35.23046875 -1.54296875 C-24.36468686 -9.70581982 -10.83231938 -7.09622658 0 0 Z M-39.875 6.6875 C-42.79767725 10.77591747 -45.50000145 14.56251979 -45.875 19.6875 C-45.936875 20.33203125 -45.99875 20.9765625 -46.0625 21.640625 C-46.47082756 28.93948019 -44.56366125 35.08816317 -40.1796875 40.95703125 C-34.33188997 47.33752289 -27.5591215 50.75193278 -18.875 51.1875 C-10.13740851 50.7492509 -3.4258755 47.3152842 2.4296875 40.87890625 C7.29656493 34.5878504 8.86184096 28.63154678 8.578125 20.6875 C7.47778952 13.40252025 3.77110666 7.36963723 -1.875 2.6875 C-14.40018061 -6.4454442 -29.68604997 -5.83035289 -39.875 6.6875 Z " fill="#F3F8EC" transform="translate(194.875,502.3125)"/>
<path d="M0 0 C2.64 0 5.28 0 8 0 C8 0.66 8 1.32 8 2 C8.804375 1.979375 9.60875 1.95875 10.4375 1.9375 C13 2 13 2 14 3 C14.07258946 5.18639453 14.08373783 7.37500389 14.0625 9.5625 C14.05347656 10.76003906 14.04445313 11.95757812 14.03515625 13.19140625 C14.02355469 14.11824219 14.01195312 15.04507813 14 16 C10.6163864 17.21117987 7.61226911 18.28010224 4 18.25 C3.071875 18.25773437 3.071875 18.25773437 2.125 18.265625 C-0.73430211 17.90821224 -3.2946932 16.96837687 -6 16 C-6.02685938 13.85423363 -6.04633088 11.70837355 -6.0625 9.5625 C-6.07410156 8.36753906 -6.08570313 7.17257813 -6.09765625 5.94140625 C-6 3 -6 3 -5 2 C-3.33382885 1.95936168 -1.66611905 1.957279 0 2 C0 1.34 0 0.68 0 0 Z " fill="#B9B9B9" transform="translate(510,135)"/>
<path d="M0 0 C2.64 0 5.28 0 8 0 C8 0.66 8 1.32 8 2 C8.804375 1.979375 9.60875 1.95875 10.4375 1.9375 C13 2 13 2 14 3 C14.07258946 5.18639453 14.08373783 7.37500389 14.0625 9.5625 C14.05347656 10.76003906 14.04445313 11.95757812 14.03515625 13.19140625 C14.02355469 14.11824219 14.01195312 15.04507813 14 16 C10.6163864 17.21117987 7.61226911 18.28010224 4 18.25 C3.071875 18.25773437 3.071875 18.25773437 2.125 18.265625 C-0.73430211 17.90821224 -3.2946932 16.96837687 -6 16 C-6.02685938 13.85423363 -6.04633088 11.70837355 -6.0625 9.5625 C-6.07410156 8.36753906 -6.08570313 7.17257813 -6.09765625 5.94140625 C-6 3 -6 3 -5 2 C-3.33382885 1.95936168 -1.66611905 1.957279 0 2 C0 1.34 0 0.68 0 0 Z " fill="#B9B9B9" transform="translate(300,135)"/>
<path d="M0 0 C2.64 0 5.28 0 8 0 C8 0.66 8 1.32 8 2 C8.804375 1.979375 9.60875 1.95875 10.4375 1.9375 C13 2 13 2 14 3 C14.07258946 5.18639453 14.08373783 7.37500389 14.0625 9.5625 C14.05347656 10.76003906 14.04445313 11.95757812 14.03515625 13.19140625 C14.02355469 14.11824219 14.01195313 15.04507813 14 16 C10.6163864 17.21117987 7.61226911 18.28010224 4 18.25 C3.071875 18.25773437 3.071875 18.25773437 2.125 18.265625 C-0.73430211 17.90821224 -3.2946932 16.96837687 -6 16 C-6.02685938 13.85423363 -6.04633088 11.70837355 -6.0625 9.5625 C-6.07410156 8.36753906 -6.08570312 7.17257813 -6.09765625 5.94140625 C-6 3 -6 3 -5 2 C-3.33382885 1.95936168 -1.66611905 1.957279 0 2 C0 1.34 0 0.68 0 0 Z " fill="#B9B9B9" transform="translate(90,135)"/>
<path d="M0 0 C5.28 0 10.56 0 16 0 C16 4.95 16 9.9 16 15 C18.97 15 21.94 15 25 15 C25 15.99 25 16.98 25 18 C22.03 18 19.06 18 16 18 C16 22.62 16 27.24 16 32 C10.72 32 5.44 32 0 32 C0 31.01 0 30.02 0 29 C4.29 29 8.58 29 13 29 C13 25.37 13 21.74 13 18 C8.71 18 4.42 18 0 18 C0 17.01 0 16.02 0 15 C4.29 15 8.58 15 13 15 C13 11.04 13 7.08 13 3 C8.71 3 4.42 3 0 3 C0 2.01 0 1.02 0 0 Z " fill="#F3F9EB" transform="translate(586,395)"/>
<path d="M0 0 C5.28 0 10.56 0 16 0 C16 4.95 16 9.9 16 15 C18.97 15 21.94 15 25 15 C25 15.99 25 16.98 25 18 C22.03 18 19.06 18 16 18 C16 22.62 16 27.24 16 32 C10.72 32 5.44 32 0 32 C0 31.01 0 30.02 0 29 C4.29 29 8.58 29 13 29 C13 25.37 13 21.74 13 18 C8.71 18 4.42 18 0 18 C0 17.01 0 16.02 0 15 C4.29 15 8.58 15 13 15 C13 11.04 13 7.08 13 3 C8.71 3 4.42 3 0 3 C0 2.01 0 1.02 0 0 Z " fill="#F3F9EB" transform="translate(376,395)"/>
<path d="M0 0 C5.28 0 10.56 0 16 0 C16 4.95 16 9.9 16 15 C18.97 15 21.94 15 25 15 C25 15.99 25 16.98 25 18 C22.03 18 19.06 18 16 18 C16 22.62 16 27.24 16 32 C10.72 32 5.44 32 0 32 C0 31.01 0 30.02 0 29 C4.29 29 8.58 29 13 29 C13 25.37 13 21.74 13 18 C8.71 18 4.42 18 0 18 C0 17.01 0 16.02 0 15 C4.29 15 8.58 15 13 15 C13 11.04 13 7.08 13 3 C8.71 3 4.42 3 0 3 C0 2.01 0 1.02 0 0 Z " fill="#F3F9EB" transform="translate(166,395)"/>
<path d="M0 0 C2.4375 0.8125 2.4375 0.8125 4.4375 2.8125 C5.72318472 6.3380254 5.53715554 9.84694563 5.5 13.5625 C5.49097656 14.73296875 5.48195313 15.9034375 5.47265625 17.109375 C5.46105469 18.00140625 5.44945312 18.8934375 5.4375 19.8125 C3.45840602 19.83936553 1.47921029 19.85883375 -0.5 19.875 C-1.60214844 19.88660156 -2.70429687 19.89820313 -3.83984375 19.91015625 C-6.5625 19.8125 -6.5625 19.8125 -7.5625 18.8125 C-7.63476502 16.95962498 -7.6463122 15.10416122 -7.625 13.25 C-7.61597656 12.23808594 -7.60695313 11.22617188 -7.59765625 10.18359375 C-7.58605469 9.40113281 -7.57445312 8.61867187 -7.5625 7.8125 C-6.9025 7.8125 -6.2425 7.8125 -5.5625 7.8125 C-5.6553125 6.6678125 -5.6553125 6.6678125 -5.75 5.5 C-5.5625 2.8125 -5.5625 2.8125 -4.375 0.9375 C-2.5625 -0.1875 -2.5625 -0.1875 0 0 Z " fill="#CDE7D5" transform="translate(534.5625,199.1875)"/>
<path d="M0 0 C2.4375 0.8125 2.4375 0.8125 4.4375 2.8125 C5.72318472 6.3380254 5.53715554 9.84694563 5.5 13.5625 C5.49097656 14.73296875 5.48195313 15.9034375 5.47265625 17.109375 C5.46105469 18.00140625 5.44945312 18.8934375 5.4375 19.8125 C3.45840602 19.83936553 1.47921029 19.85883375 -0.5 19.875 C-1.60214844 19.88660156 -2.70429688 19.89820313 -3.83984375 19.91015625 C-6.5625 19.8125 -6.5625 19.8125 -7.5625 18.8125 C-7.63476502 16.95962498 -7.6463122 15.10416122 -7.625 13.25 C-7.61597656 12.23808594 -7.60695313 11.22617188 -7.59765625 10.18359375 C-7.58605469 9.40113281 -7.57445312 8.61867187 -7.5625 7.8125 C-6.9025 7.8125 -6.2425 7.8125 -5.5625 7.8125 C-5.6553125 6.6678125 -5.6553125 6.6678125 -5.75 5.5 C-5.5625 2.8125 -5.5625 2.8125 -4.375 0.9375 C-2.5625 -0.1875 -2.5625 -0.1875 0 0 Z " fill="#CDE7D5" transform="translate(324.5625,199.1875)"/>
<path d="M0 0 C2.4375 0.8125 2.4375 0.8125 4.4375 2.8125 C5.72318472 6.3380254 5.53715554 9.84694563 5.5 13.5625 C5.49097656 14.73296875 5.48195313 15.9034375 5.47265625 17.109375 C5.46105469 18.00140625 5.44945313 18.8934375 5.4375 19.8125 C3.45840602 19.83936553 1.47921029 19.85883375 -0.5 19.875 C-1.60214844 19.88660156 -2.70429687 19.89820313 -3.83984375 19.91015625 C-6.5625 19.8125 -6.5625 19.8125 -7.5625 18.8125 C-7.63476502 16.95962498 -7.6463122 15.10416122 -7.625 13.25 C-7.61597656 12.23808594 -7.60695313 11.22617188 -7.59765625 10.18359375 C-7.58605469 9.40113281 -7.57445313 8.61867187 -7.5625 7.8125 C-6.9025 7.8125 -6.2425 7.8125 -5.5625 7.8125 C-5.6553125 6.6678125 -5.6553125 6.6678125 -5.75 5.5 C-5.5625 2.8125 -5.5625 2.8125 -4.375 0.9375 C-2.5625 -0.1875 -2.5625 -0.1875 0 0 Z " fill="#CDE7D5" transform="translate(114.5625,199.1875)"/>
<path d="M0 0 C0.928125 0.20625 1.85625 0.4125 2.8125 0.625 C2.8125 1.285 2.8125 1.945 2.8125 2.625 C4.4625 2.295 6.1125 1.965 7.8125 1.625 C8.1425 4.925 8.4725 8.225 8.8125 11.625 C5.17564463 14.04957025 2.45017221 13.92268407 -1.75 13.875 C-2.43513672 13.88273437 -3.12027344 13.89046875 -3.82617188 13.8984375 C-8.9341133 13.8783867 -8.9341133 13.8783867 -11.1875 11.625 C-11.625 9.3125 -11.625 9.3125 -11.1875 6.625 C-4.98253106 -0.58618012 -4.98253106 -0.58618012 0 0 Z " fill="#658FC7" transform="translate(35.1875,29.375)"/>
<path d="M0 0 C0.928125 0.20625 1.85625 0.4125 2.8125 0.625 C2.8125 1.285 2.8125 1.945 2.8125 2.625 C4.4625 2.295 6.1125 1.965 7.8125 1.625 C7.4825 2.615 7.1525 3.605 6.8125 4.625 C4.8325 4.625 2.8525 4.625 0.8125 4.625 C0.874375 5.800625 0.874375 5.800625 0.9375 7 C0.8125 9.625 0.8125 9.625 -1.1875 11.625 C1.1225 11.955 3.4325 12.285 5.8125 12.625 C5.8125 12.955 5.8125 13.285 5.8125 13.625 C3.35387599 13.67883848 0.8964245 13.71859038 -1.5625 13.75 C-2.61050781 13.77513672 -2.61050781 13.77513672 -3.6796875 13.80078125 C-5.51647486 13.81844267 -7.35351963 13.72803261 -9.1875 13.625 C-11.1875 11.625 -11.1875 11.625 -11.625 9.3125 C-11.00221978 5.48685008 -9.06994358 4.10524215 -6.1875 1.625 C-3.1875 -0.375 -3.1875 -0.375 0 0 Z " fill="#88A8D4" transform="translate(75.1875,109.375)"/>
<path d="M0 0 C2 2 2 2 2.1953125 4.1640625 C2.13020833 6.44270833 2.06510417 8.72135417 2 11 C-1.96 11 -5.92 11 -10 11 C-10.48497409 2.63419689 -10.48497409 2.63419689 -8.375 -0.125 C-5.19868478 -1.2952214 -3.22753103 -0.91212834 0 0 Z " fill="#91C44E" transform="translate(595,513)"/>
<path d="M0 0 C2 2 2 2 2.1953125 4.1640625 C2.13020833 6.44270833 2.06510417 8.72135417 2 11 C-1.96 11 -5.92 11 -10 11 C-10.48497409 2.63419689 -10.48497409 2.63419689 -8.375 -0.125 C-5.19868478 -1.2952214 -3.22753103 -0.91212834 0 0 Z " fill="#91C44E" transform="translate(390,513)"/>
<path d="M0 0 C2 2 2 2 2.1953125 4.1640625 C2.13020833 6.44270833 2.06510417 8.72135417 2 11 C-1.96 11 -5.92 11 -10 11 C-10.48497409 2.63419689 -10.48497409 2.63419689 -8.375 -0.125 C-5.19868478 -1.2952214 -3.22753103 -0.91212834 0 0 Z " fill="#91C44E" transform="translate(180,513)"/>
<path d="M0 0 C0.86625 0.04125 1.7325 0.0825 2.625 0.125 C3.945 0.125 5.265 0.125 6.625 0.125 C6.625 1.115 6.625 2.105 6.625 3.125 C7.8315625 2.8465625 7.8315625 2.8465625 9.0625 2.5625 C10.3309375 2.3459375 10.3309375 2.3459375 11.625 2.125 C12.625 3.125 12.625 3.125 12.6875 5.6875 C12.666875 6.491875 12.64625 7.29625 12.625 8.125 C9.86235711 8.72232819 7.46467231 9.125 4.625 9.125 C4.625 8.465 4.625 7.805 4.625 7.125 C3.965 7.125 3.305 7.125 2.625 7.125 C2.625 7.785 2.625 8.445 2.625 9.125 C0.25 9.25 0.25 9.25 -2.375 9.125 C-4.375 7.125 -4.375 7.125 -4.625 4.625 C-4.28500421 1.22504206 -3.4606857 0.18214135 0 0 Z " fill="#A2A2A2" transform="translate(78.375,27.875)"/>
<path d="M0 0 C2.64 0 5.28 0 8 0 C8 0.66 8 1.32 8 2 C8.804375 1.979375 9.60875 1.95875 10.4375 1.9375 C13 2 13 2 14 3 C14.0989294 5.16480797 14.129711 7.33293785 14.125 9.5 C14.12886719 11.27890625 14.12886719 11.27890625 14.1328125 13.09375 C14 16 14 16 13 17 C11.33382885 17.04063832 9.66611905 17.042721 8 17 C9.32 16.67 10.64 16.34 12 16 C12 13.36 12 10.72 12 8 C10.35 7.67 8.7 7.34 7 7 C7 5.02 7 3.04 7 1 C5.02 1 3.04 1 1 1 C0.67 3.31 0.34 5.62 0 8 C-0.99 8 -1.98 8 -3 8 C-3.144375 7.38125 -3.28875 6.7625 -3.4375 6.125 C-3.93152225 3.96741678 -3.93152225 3.96741678 -5 2 C-3.35 2 -1.7 2 0 2 C0 1.34 0 0.68 0 0 Z " fill="#C2C2C2" transform="translate(510,135)"/>
<path d="M0 0 C2.64 0 5.28 0 8 0 C8 0.66 8 1.32 8 2 C8.804375 1.979375 9.60875 1.95875 10.4375 1.9375 C13 2 13 2 14 3 C14.0989294 5.16480797 14.129711 7.33293785 14.125 9.5 C14.12886719 11.27890625 14.12886719 11.27890625 14.1328125 13.09375 C14 16 14 16 13 17 C11.33382885 17.04063832 9.66611905 17.042721 8 17 C9.32 16.67 10.64 16.34 12 16 C12 13.36 12 10.72 12 8 C10.35 7.67 8.7 7.34 7 7 C7 5.02 7 3.04 7 1 C5.02 1 3.04 1 1 1 C0.67 3.31 0.34 5.62 0 8 C-0.99 8 -1.98 8 -3 8 C-3.144375 7.38125 -3.28875 6.7625 -3.4375 6.125 C-3.93152225 3.96741678 -3.93152225 3.96741678 -5 2 C-3.35 2 -1.7 2 0 2 C0 1.34 0 0.68 0 0 Z " fill="#C2C2C2" transform="translate(300,135)"/>
<path d="M0 0 C2.64 0 5.28 0 8 0 C8 0.66 8 1.32 8 2 C8.804375 1.979375 9.60875 1.95875 10.4375 1.9375 C13 2 13 2 14 3 C14.0989294 5.16480797 14.129711 7.33293785 14.125 9.5 C14.12886719 11.27890625 14.12886719 11.27890625 14.1328125 13.09375 C14 16 14 16 13 17 C11.33382885 17.04063832 9.66611905 17.042721 8 17 C9.32 16.67 10.64 16.34 12 16 C12 13.36 12 10.72 12 8 C10.35 7.67 8.7 7.34 7 7 C7 5.02 7 3.04 7 1 C5.02 1 3.04 1 1 1 C0.67 3.31 0.34 5.62 0 8 C-0.99 8 -1.98 8 -3 8 C-3.144375 7.38125 -3.28875 6.7625 -3.4375 6.125 C-3.93152225 3.96741678 -3.93152225 3.96741678 -5 2 C-3.35 2 -1.7 2 0 2 C0 1.34 0 0.68 0 0 Z " fill="#C2C2C2" transform="translate(90,135)"/>
<path d="M0 0 C1.23556641 0.01740234 1.23556641 0.01740234 2.49609375 0.03515625 C3.32238281 0.04417969 4.14867187 0.05320313 5 0.0625 C5.63808594 0.07410156 6.27617187 0.08570313 6.93359375 0.09765625 C6.93359375 2.73765625 6.93359375 5.37765625 6.93359375 8.09765625 C8.25359375 8.42765625 9.57359375 8.75765625 10.93359375 9.09765625 C6.60026042 9.09765625 2.26692708 9.09765625 -2.06640625 9.09765625 C-3.43264299 6.36518277 -3.19483225 4.11566723 -3.06640625 1.09765625 C-2.06640625 0.09765625 -2.06640625 0.09765625 0 0 Z " fill="#454545" transform="translate(386.06640625,177.90234375)"/>
<path d="M0 0 C0.99 0 1.98 0 3 0 C3 3.96 3 7.92 3 12 C-0.96 12 -4.92 12 -9 12 C-9 9.36 -9 6.72 -9 4 C-6.525 5.98 -6.525 5.98 -4 8 C-2.35 6.02 -0.7 4.04 1 2 C0.67 1.34 0.34 0.68 0 0 Z " fill="#F4FAF6" transform="translate(537,207)"/>
<path d="M0 0 C0.99 0 1.98 0 3 0 C3 3.96 3 7.92 3 12 C-0.96 12 -4.92 12 -9 12 C-9 9.36 -9 6.72 -9 4 C-6.525 5.98 -6.525 5.98 -4 8 C-2.35 6.02 -0.7 4.04 1 2 C0.67 1.34 0.34 0.68 0 0 Z " fill="#F4FAF6" transform="translate(327,207)"/>
<path d="M0 0 C0.99 0 1.98 0 3 0 C3 3.96 3 7.92 3 12 C-0.96 12 -4.92 12 -9 12 C-9 9.36 -9 6.72 -9 4 C-6.525 5.98 -6.525 5.98 -4 8 C-2.35 6.02 -0.7 4.04 1 2 C0.67 1.34 0.34 0.68 0 0 Z " fill="#F4FAF6" transform="translate(117,207)"/>
<path d="M0 0 C1.98 0 3.96 0 6 0 C6.33 0.99 6.66 1.98 7 3 C7.639375 2.814375 8.27875 2.62875 8.9375 2.4375 C9.618125 2.293125 10.29875 2.14875 11 2 C12 3 12 3 12.125 5.5 C12 8 12 8 11 9 C8.98035801 9.07244053 6.95832876 9.08377188 4.9375 9.0625 C3.83277344 9.05347656 2.72804688 9.04445312 1.58984375 9.03515625 C0.30787109 9.01775391 0.30787109 9.01775391 -1 9 C0.20381448 6.50638429 1.45428722 4.31856917 3 2 C2.01 1.34 1.02 0.68 0 0 Z " fill="#595959" transform="translate(530,138)"/>
<path d="M0 0 C1.98 0 3.96 0 6 0 C6.33 0.99 6.66 1.98 7 3 C7.639375 2.814375 8.27875 2.62875 8.9375 2.4375 C9.618125 2.293125 10.29875 2.14875 11 2 C12 3 12 3 12.125 5.5 C12 8 12 8 11 9 C8.98035801 9.07244053 6.95832876 9.08377188 4.9375 9.0625 C3.83277344 9.05347656 2.72804688 9.04445312 1.58984375 9.03515625 C0.30787109 9.01775391 0.30787109 9.01775391 -1 9 C0.20381448 6.50638429 1.45428722 4.31856917 3 2 C2.01 1.34 1.02 0.68 0 0 Z " fill="#595959" transform="translate(320,138)"/>
<path d="M0 0 C1.98 0 3.96 0 6 0 C6.33 0.99 6.66 1.98 7 3 C7.639375 2.814375 8.27875 2.62875 8.9375 2.4375 C9.618125 2.293125 10.29875 2.14875 11 2 C12 3 12 3 12.125 5.5 C12 8 12 8 11 9 C8.98035801 9.07244053 6.95832876 9.08377188 4.9375 9.0625 C3.83277344 9.05347656 2.72804688 9.04445312 1.58984375 9.03515625 C0.30787109 9.01775391 0.30787109 9.01775391 -1 9 C0.20381448 6.50638429 1.45428722 4.31856917 3 2 C2.01 1.34 1.02 0.68 0 0 Z " fill="#595959" transform="translate(110,138)"/>
<path d="M0 0 C0 2.97 0 5.94 0 9 C-1.64574566 9.02688151 -3.29161413 9.04634123 -4.9375 9.0625 C-5.85402344 9.07410156 -6.77054688 9.08570313 -7.71484375 9.09765625 C-10 9 -10 9 -11 8 C-11.04063832 6.33382885 -11.042721 4.66611905 -11 3 C-2 0 -2 0 0 0 Z " fill="#6F6F6F" transform="translate(650,571)"/>
<path d="M0 0 C0 2.97 0 5.94 0 9 C-1.64574566 9.02688151 -3.29161413 9.04634123 -4.9375 9.0625 C-5.85402344 9.07410156 -6.77054687 9.08570313 -7.71484375 9.09765625 C-10 9 -10 9 -11 8 C-11.04063832 6.33382885 -11.042721 4.66611905 -11 3 C-2 0 -2 0 0 0 Z " fill="#6F6F6F" transform="translate(445,571)"/>
<path d="M0 0 C0 2.97 0 5.94 0 9 C-1.64574566 9.02688151 -3.29161413 9.04634123 -4.9375 9.0625 C-5.85402344 9.07410156 -6.77054688 9.08570313 -7.71484375 9.09765625 C-10 9 -10 9 -11 8 C-11.04063832 6.33382885 -11.042721 4.66611905 -11 3 C-2 0 -2 0 0 0 Z " fill="#6F6F6F" transform="translate(235,571)"/>
<path d="M0 0 C0.598125 0.165 1.19625 0.33 1.8125 0.5 C4.28463003 1.06505829 5.60492767 0.7185217 8 0 C8.66 0 9.32 0 10 0 C10.33 0.66 10.66 1.32 11 2 C11.66 1.34 12.32 0.68 13 0 C12.67 2.31 12.34 4.62 12 7 C11.34 7 10.68 7 10 7 C10 6.34 10 5.68 10 5 C9.34 5 8.68 5 8 5 C8 5.66 8 6.32 8 7 C4.72724974 7 2.153368 6.70074844 -1 6 C-1.042721 4.33388095 -1.04063832 2.66617115 -1 1 C-0.67 0.67 -0.34 0.34 0 0 Z " fill="#404040" transform="translate(612,452)"/>
<path d="M0 0 C0.598125 0.165 1.19625 0.33 1.8125 0.5 C4.28463003 1.06505829 5.60492767 0.7185217 8 0 C8.66 0 9.32 0 10 0 C10.33 0.66 10.66 1.32 11 2 C11.66 1.34 12.32 0.68 13 0 C12.67 2.31 12.34 4.62 12 7 C11.34 7 10.68 7 10 7 C10 6.34 10 5.68 10 5 C9.34 5 8.68 5 8 5 C8 5.66 8 6.32 8 7 C4.72724974 7 2.153368 6.70074844 -1 6 C-1.042721 4.33388095 -1.04063832 2.66617115 -1 1 C-0.67 0.67 -0.34 0.34 0 0 Z " fill="#404040" transform="translate(402,452)"/>
<path d="M0 0 C0.598125 0.165 1.19625 0.33 1.8125 0.5 C4.28463003 1.06505829 5.60492767 0.7185217 8 0 C8.66 0 9.32 0 10 0 C10.33 0.66 10.66 1.32 11 2 C11.66 1.34 12.32 0.68 13 0 C12.67 2.31 12.34 4.62 12 7 C11.34 7 10.68 7 10 7 C10 6.34 10 5.68 10 5 C9.34 5 8.68 5 8 5 C8 5.66 8 6.32 8 7 C4.72724974 7 2.153368 6.70074844 -1 6 C-1.042721 4.33388095 -1.04063832 2.66617115 -1 1 C-0.67 0.67 -0.34 0.34 0 0 Z " fill="#404040" transform="translate(192,452)"/>
<path d="M0 0 C0.66 0 1.32 0 2 0 C2.33 0.99 2.66 1.98 3 3 C3.61875 2.835 4.2375 2.67 4.875 2.5 C7 2 7 2 9 2 C9.845625 1.979375 10.69125 1.95875 11.5625 1.9375 C14 2 14 2 15 3 C15.04080783 4.99958364 15.04254356 7.00045254 15 9 C14.34 9 13.68 9 13 9 C13 7.35 13 5.7 13 4 C12.34 4 11.68 4 11 4 C11 5.65 11 7.3 11 9 C9.125 8.75 9.125 8.75 7 8 C5.75 5.9375 5.75 5.9375 5 4 C4.731875 4.639375 4.46375 5.27875 4.1875 5.9375 C3 8 3 8 0 9 C0 6.03 0 3.06 0 0 Z " fill="#4C4C4C" transform="translate(589,585)"/>
<path d="M0 0 C0.66 0 1.32 0 2 0 C2.33 0.99 2.66 1.98 3 3 C3.61875 2.835 4.2375 2.67 4.875 2.5 C7 2 7 2 9 2 C9.845625 1.979375 10.69125 1.95875 11.5625 1.9375 C14 2 14 2 15 3 C15.04080783 4.99958364 15.04254356 7.00045254 15 9 C14.34 9 13.68 9 13 9 C13 7.35 13 5.7 13 4 C12.34 4 11.68 4 11 4 C11 5.65 11 7.3 11 9 C9.125 8.75 9.125 8.75 7 8 C5.75 5.9375 5.75 5.9375 5 4 C4.731875 4.639375 4.46375 5.27875 4.1875 5.9375 C3 8 3 8 0 9 C0 6.03 0 3.06 0 0 Z " fill="#4C4C4C" transform="translate(384,585)"/>
<path d="M0 0 C0.66 0 1.32 0 2 0 C2.33 0.99 2.66 1.98 3 3 C3.61875 2.835 4.2375 2.67 4.875 2.5 C7 2 7 2 9 2 C9.845625 1.979375 10.69125 1.95875 11.5625 1.9375 C14 2 14 2 15 3 C15.04080783 4.99958364 15.04254356 7.00045254 15 9 C14.34 9 13.68 9 13 9 C13 7.35 13 5.7 13 4 C12.34 4 11.68 4 11 4 C11 5.65 11 7.3 11 9 C9.125 8.75 9.125 8.75 7 8 C5.75 5.9375 5.75 5.9375 5 4 C4.731875 4.639375 4.46375 5.27875 4.1875 5.9375 C3 8 3 8 0 9 C0 6.03 0 3.06 0 0 Z " fill="#4C4C4C" transform="translate(174,585)"/>
<path d="M0 0 C0.66 0 1.32 0 2 0 C2.33 0.99 2.66 1.98 3 3 C3.61875 2.835 4.2375 2.67 4.875 2.5 C7 2 7 2 9 2 C9.845625 1.979375 10.69125 1.95875 11.5625 1.9375 C14 2 14 2 15 3 C15.04080783 4.99958364 15.04254356 7.00045254 15 9 C14.34 9 13.68 9 13 9 C13 7.35 13 5.7 13 4 C12.34 4 11.68 4 11 4 C11 5.65 11 7.3 11 9 C9.125 8.75 9.125 8.75 7 8 C5.75 5.9375 5.75 5.9375 5 4 C4.731875 4.639375 4.46375 5.27875 4.1875 5.9375 C3 8 3 8 0 9 C0 6.03 0 3.06 0 0 Z " fill="#4C4C4C" transform="translate(594,464)"/>
<path d="M0 0 C0.66 0 1.32 0 2 0 C2.33 0.99 2.66 1.98 3 3 C3.61875 2.835 4.2375 2.67 4.875 2.5 C7 2 7 2 9 2 C9.845625 1.979375 10.69125 1.95875 11.5625 1.9375 C14 2 14 2 15 3 C15.04080783 4.99958364 15.04254356 7.00045254 15 9 C14.34 9 13.68 9 13 9 C13 7.35 13 5.7 13 4 C12.34 4 11.68 4 11 4 C11 5.65 11 7.3 11 9 C9.125 8.75 9.125 8.75 7 8 C5.75 5.9375 5.75 5.9375 5 4 C4.731875 4.639375 4.46375 5.27875 4.1875 5.9375 C3 8 3 8 0 9 C0 6.03 0 3.06 0 0 Z " fill="#4C4C4C" transform="translate(384,464)"/>
<path d="M0 0 C0.66 0 1.32 0 2 0 C2.33 0.99 2.66 1.98 3 3 C3.61875 2.835 4.2375 2.67 4.875 2.5 C7 2 7 2 9 2 C9.845625 1.979375 10.69125 1.95875 11.5625 1.9375 C14 2 14 2 15 3 C15.04080783 4.99958364 15.04254356 7.00045254 15 9 C14.34 9 13.68 9 13 9 C13 7.35 13 5.7 13 4 C12.34 4 11.68 4 11 4 C11 5.65 11 7.3 11 9 C9.125 8.75 9.125 8.75 7 8 C5.75 5.9375 5.75 5.9375 5 4 C4.731875 4.639375 4.46375 5.27875 4.1875 5.9375 C3 8 3 8 0 9 C0 6.03 0 3.06 0 0 Z " fill="#4C4C4C" transform="translate(174,464)"/>
<path d="M0 0 C2.33294775 -0.04241723 4.66702567 -0.04092937 7 0 C8 1 8 1 8.125 4 C8 7 8 7 7 8 C4.98035801 8.07244053 2.95832876 8.08377188 0.9375 8.0625 C-0.16722656 8.05347656 -1.27195312 8.04445313 -2.41015625 8.03515625 C-3.69212891 8.01775391 -3.69212891 8.01775391 -5 8 C-4.35546875 7.56042969 -3.7109375 7.12085937 -3.046875 6.66796875 C-0.49314226 4.58696898 -0.3461011 3.20143516 0 0 Z " fill="#5885C2" transform="translate(76,114)"/>
<path d="M0 0 C1.21816406 0.03480469 1.21816406 0.03480469 2.4609375 0.0703125 C3.68683594 0.09738281 3.68683594 0.09738281 4.9375 0.125 C5.87722656 0.15980469 5.87722656 0.15980469 6.8359375 0.1953125 C7.77017395 3.20562994 7.88043661 4.06181518 6.8359375 7.1953125 C3.5359375 7.1953125 0.2359375 7.1953125 -3.1640625 7.1953125 C-3.7890625 4.8203125 -3.7890625 4.8203125 -4.1640625 2.1953125 C-2.1640625 0.1953125 -2.1640625 0.1953125 0 0 Z " fill="#BFBFBF" transform="translate(82.1640625,69.8046875)"/>
<path d="M0 0 C1.2065625 0.0309375 1.2065625 0.0309375 2.4375 0.0625 C2.4375 1.0525 2.4375 2.0425 2.4375 3.0625 C1.1175 2.7325 -0.2025 2.4025 -1.5625 2.0625 C-1.5625 4.0425 -1.5625 6.0225 -1.5625 8.0625 C1.64526356 7.25991849 1.64526356 7.25991849 3.875 4.4375 C4.720625 3.65375 5.56625 2.87 6.4375 2.0625 C8.75 2.25 8.75 2.25 10.4375 3.0625 C10.480221 4.72861905 10.47813832 6.39632885 10.4375 8.0625 C9.4375 9.0625 9.4375 9.0625 6.71484375 9.16015625 C5.06162109 9.14275391 5.06162109 9.14275391 3.375 9.125 C1.71791016 9.11146484 1.71791016 9.11146484 0.02734375 9.09765625 C-0.82730469 9.08605469 -1.68195312 9.07445312 -2.5625 9.0625 C-3.92873674 6.33002652 -3.690926 4.08051098 -3.5625 1.0625 C-2.5625 0.0625 -2.5625 0.0625 0 0 Z " fill="#565656" transform="translate(607.5625,570.9375)"/>
<path d="M0 0 C1.2065625 0.0309375 1.2065625 0.0309375 2.4375 0.0625 C2.4375 1.0525 2.4375 2.0425 2.4375 3.0625 C1.1175 2.7325 -0.2025 2.4025 -1.5625 2.0625 C-1.5625 4.0425 -1.5625 6.0225 -1.5625 8.0625 C1.64526356 7.25991849 1.64526356 7.25991849 3.875 4.4375 C4.720625 3.65375 5.56625 2.87 6.4375 2.0625 C8.75 2.25 8.75 2.25 10.4375 3.0625 C10.480221 4.72861905 10.47813832 6.39632885 10.4375 8.0625 C9.4375 9.0625 9.4375 9.0625 6.71484375 9.16015625 C5.06162109 9.14275391 5.06162109 9.14275391 3.375 9.125 C1.71791016 9.11146484 1.71791016 9.11146484 0.02734375 9.09765625 C-0.82730469 9.08605469 -1.68195313 9.07445312 -2.5625 9.0625 C-3.92873674 6.33002652 -3.690926 4.08051098 -3.5625 1.0625 C-2.5625 0.0625 -2.5625 0.0625 0 0 Z " fill="#565656" transform="translate(402.5625,570.9375)"/>
<path d="M0 0 C1.2065625 0.0309375 1.2065625 0.0309375 2.4375 0.0625 C2.4375 1.0525 2.4375 2.0425 2.4375 3.0625 C1.1175 2.7325 -0.2025 2.4025 -1.5625 2.0625 C-1.5625 4.0425 -1.5625 6.0225 -1.5625 8.0625 C1.64526356 7.25991849 1.64526356 7.25991849 3.875 4.4375 C4.720625 3.65375 5.56625 2.87 6.4375 2.0625 C8.75 2.25 8.75 2.25 10.4375 3.0625 C10.480221 4.72861905 10.47813832 6.39632885 10.4375 8.0625 C9.4375 9.0625 9.4375 9.0625 6.71484375 9.16015625 C5.06162109 9.14275391 5.06162109 9.14275391 3.375 9.125 C1.71791016 9.11146484 1.71791016 9.11146484 0.02734375 9.09765625 C-0.82730469 9.08605469 -1.68195313 9.07445312 -2.5625 9.0625 C-3.92873674 6.33002652 -3.690926 4.08051098 -3.5625 1.0625 C-2.5625 0.0625 -2.5625 0.0625 0 0 Z " fill="#565656" transform="translate(192.5625,570.9375)"/>
<path d="M0 0 C0.33 0 0.66 0 1 0 C1 2.97 1 5.94 1 9 C0.195625 8.814375 -0.60875 8.62875 -1.4375 8.4375 C-2.283125 8.293125 -3.12875 8.14875 -4 8 C-4.33 8.33 -4.66 8.66 -5 9 C-7.5 9.125 -7.5 9.125 -10 9 C-11 8 -11 8 -11.0625 4.9375 C-11.041875 3.968125 -11.02125 2.99875 -11 2 C-10.34 2 -9.68 2 -9 2 C-9 3.98 -9 5.96 -9 8 C-8.34 8 -7.68 8 -7 8 C-7 6.02 -7 4.04 -7 2 C-4.66666667 2 -2.33333333 2 0 2 C0 1.34 0 0.68 0 0 Z " fill="#636363" transform="translate(103,28)"/>
<path d="M0 0 C0.125 2.875 0.125 2.875 0 6 C-2 8 -2 8 -4.5625 8.1875 C-7 8 -7 8 -8 7 C-8.04092937 4.66702567 -8.04241723 2.33294775 -8 0 C-5.13822943 -1.43088528 -3.06624227 -0.59991697 0 0 Z " fill="#3E3E3E" transform="translate(578,586)"/>
<path d="M0 0 C0.125 2.875 0.125 2.875 0 6 C-2 8 -2 8 -4.5625 8.1875 C-7 8 -7 8 -8 7 C-8.04092937 4.66702567 -8.04241723 2.33294775 -8 0 C-5.13822943 -1.43088528 -3.06624227 -0.59991697 0 0 Z " fill="#3E3E3E" transform="translate(373,586)"/>
<path d="M0 0 C0.125 2.875 0.125 2.875 0 6 C-2 8 -2 8 -4.5625 8.1875 C-7 8 -7 8 -8 7 C-8.04092937 4.66702567 -8.04241723 2.33294775 -8 0 C-5.13822943 -1.43088528 -3.06624227 -0.59991697 0 0 Z " fill="#3E3E3E" transform="translate(163,586)"/>
<path d="M0 0 C0.125 2.875 0.125 2.875 0 6 C-2 8 -2 8 -4.5625 8.1875 C-7 8 -7 8 -8 7 C-8.04092937 4.66702567 -8.04241723 2.33294775 -8 0 C-5.13822943 -1.43088528 -3.06624227 -0.59991697 0 0 Z " fill="#3E3E3E" transform="translate(583,465)"/>
<path d="M0 0 C0.125 2.875 0.125 2.875 0 6 C-2 8 -2 8 -4.5625 8.1875 C-7 8 -7 8 -8 7 C-8.04092937 4.66702567 -8.04241723 2.33294775 -8 0 C-5.13822943 -1.43088528 -3.06624227 -0.59991697 0 0 Z " fill="#3E3E3E" transform="translate(373,465)"/>
<path d="M0 0 C0.125 2.875 0.125 2.875 0 6 C-2 8 -2 8 -4.5625 8.1875 C-7 8 -7 8 -8 7 C-8.04092937 4.66702567 -8.04241723 2.33294775 -8 0 C-5.13822943 -1.43088528 -3.06624227 -0.59991697 0 0 Z " fill="#3E3E3E" transform="translate(163,465)"/>
<path d="M0 0 C4.66666667 0 9.33333333 0 14 0 C14 0.99 14 1.98 14 3 C12.68 2.67 11.36 2.34 10 2 C10 3.65 10 5.3 10 7 C11.65 6.67 13.3 6.34 15 6 C14.67 6.99 14.34 7.98 14 9 C11.6875 9.3125 11.6875 9.3125 9 9 C7.1875 6.5 7.1875 6.5 6 4 C4.35 4.33 2.7 4.66 1 5 C0.67 6.32 0.34 7.64 0 9 C0 6.03 0 3.06 0 0 Z " fill="#484848" transform="translate(98,108)"/>
<path d="M0 0 C0.66 0 1.32 0 2 0 C2 0.66 2 1.32 2 2 C3.98 2 5.96 2 8 2 C9.33332095 4.6666419 8.67102033 6.16680303 8 9 C5.36 9 2.72 9 0 9 C0 6.03 0 3.06 0 0 Z " fill="#535752" transform="translate(564,203)"/>
<path d="M0 0 C0.66 0 1.32 0 2 0 C2 0.66 2 1.32 2 2 C3.98 2 5.96 2 8 2 C9.33332095 4.6666419 8.67102033 6.16680303 8 9 C5.36 9 2.72 9 0 9 C0 6.03 0 3.06 0 0 Z " fill="#535752" transform="translate(354,203)"/>
<path d="M0 0 C0.66 0 1.32 0 2 0 C2 0.66 2 1.32 2 2 C3.98 2 5.96 2 8 2 C9.33332095 4.6666419 8.67102033 6.16680303 8 9 C5.36 9 2.72 9 0 9 C0 6.03 0 3.06 0 0 Z " fill="#535752" transform="translate(144,203)"/>
<path d="M0 0 C0 3.63 0 7.26 0 11 C-1.98 11 -3.96 11 -6 11 C-6 7.7 -6 4.4 -6 1 C-1.125 0 -1.125 0 0 0 Z " fill="#919191" transform="translate(517,141)"/>
<path d="M0 0 C0 3.63 0 7.26 0 11 C-1.98 11 -3.96 11 -6 11 C-6 7.7 -6 4.4 -6 1 C-1.125 0 -1.125 0 0 0 Z " fill="#919191" transform="translate(307,141)"/>
<path d="M0 0 C0 3.63 0 7.26 0 11 C-1.98 11 -3.96 11 -6 11 C-6 7.7 -6 4.4 -6 1 C-1.125 0 -1.125 0 0 0 Z " fill="#919191" transform="translate(97,141)"/>
<path d="M0 0 C0.33 0 0.66 0 1 0 C1 12.87 1 25.74 1 39 C2.32 39 3.64 39 5 39 C5 39.99 5 40.98 5 42 C2.69 42 0.38 42 -2 42 C-1.67 41.01 -1.34 40.02 -1 39 C-0.84565842 36.05282827 -0.7424397 33.12501135 -0.68359375 30.17578125 C-0.66281265 29.31438034 -0.64203156 28.45297943 -0.62062073 27.56547546 C-0.55525091 24.81456456 -0.49629868 22.06355844 -0.4375 19.3125 C-0.39430283 17.44725579 -0.35068815 15.5820212 -0.30664062 13.71679688 C-0.19958237 9.14462876 -0.09827946 4.5723649 0 0 Z " fill="#919191" transform="translate(481,131)"/>
<path d="M0 0 C-0.020625 1.093125 -0.04125 2.18625 -0.0625 3.3125 C-0.18544452 6.94384191 -0.18544452 6.94384191 1 10 C4.3 10 7.6 10 11 10 C11 10.33 11 10.66 11 11 C8.54137599 11.05383848 6.0839245 11.09359038 3.625 11.125 C2.57699219 11.15013672 2.57699219 11.15013672 1.5078125 11.17578125 C-0.32897486 11.19344267 -2.16601963 11.10303261 -4 11 C-6 9 -6 9 -6.375 6.625 C-5.85761283 3.00328983 -3.93056022 0 0 0 Z " fill="#86A7D3" transform="translate(70,112)"/>
<path d="M0 0 C4.29 0.33 8.58 0.66 13 1 C12.34 1.66 11.68 2.32 11 3 C8.6171875 2.9765625 8.6171875 2.9765625 5.875 2.625 C4.96492188 2.51414062 4.05484375 2.40328125 3.1171875 2.2890625 C2.41851562 2.19367188 1.71984375 2.09828125 1 2 C1 3.98 1 5.96 1 8 C2.45880109 7.85892253 3.91703551 7.71197585 5.375 7.5625 C6.18710937 7.48128906 6.99921875 7.40007812 7.8359375 7.31640625 C10.04272805 7.10909886 10.04272805 7.10909886 12 6 C12.66 7.32 13.32 8.64 14 10 C9.71 10 5.42 10 1 10 C1 12.64 1 15.28 1 18 C0.67 18 0.34 18 0 18 C0 12.06 0 6.12 0 0 Z " fill="#E7E7E7" transform="translate(47,65)"/>
<path d="M0 0 C0.78375 0.04125 1.5675 0.0825 2.375 0.125 C2.375 1.115 2.375 2.105 2.375 3.125 C1.055 2.795 -0.265 2.465 -1.625 2.125 C-1.625 3.775 -1.625 5.425 -1.625 7.125 C-0.635 7.125 0.355 7.125 1.375 7.125 C1.705 6.465 2.035 5.805 2.375 5.125 C1.385 4.795 0.395 4.465 -0.625 4.125 C1.025 4.125 2.675 4.125 4.375 4.125 C4.375 3.465 4.375 2.805 4.375 2.125 C5.695 2.455 7.015 2.785 8.375 3.125 C7.715 5.105 7.055 7.085 6.375 9.125 C4.91707116 9.17899736 3.45857288 9.21779177 2 9.25 C1.18789062 9.27320312 0.37578125 9.29640625 -0.4609375 9.3203125 C-2.625 9.125 -2.625 9.125 -4.625 7.125 C-4.875 4.625 -4.875 4.625 -4.625 2.125 C-2.625 0.125 -2.625 0.125 0 0 Z " fill="#323232" transform="translate(128.625,67.875)"/>
<path d="M0 0 C3.3 0 6.6 0 10 0 C10 1.98 10 3.96 10 6 C6.7 6 3.4 6 0 6 C0 4.02 0 2.04 0 0 Z " fill="#9A9A9A" transform="translate(48,67)"/>
<path d="M0 0 C1.98 0 3.96 0 6 0 C6.87890625 6.15234375 6.87890625 6.15234375 7 8 C6 9 6 9 2.9375 9.0625 C1.968125 9.041875 0.99875 9.02125 0 9 C0 6.03 0 3.06 0 0 Z " fill="#696969" transform="translate(53,28)"/>
<path d="M0 0 C0.66 0 1.32 0 2 0 C2 0.99 2 1.98 2 3 C2.804375 2.814375 3.60875 2.62875 4.4375 2.4375 C5.7059375 2.2209375 5.7059375 2.2209375 7 2 C8 3 8 3 8.0625 5.5625 C8.041875 6.366875 8.02125 7.17125 8 8 C5.23735711 8.59732819 2.83967231 9 0 9 C0 6.03 0 3.06 0 0 Z " fill="#767676" transform="translate(83,28)"/>
<path d="M0 0 C2 2 2 2 2.125 5.125 C2.08375 6.07375 2.0425 7.0225 2 8 C-0.66666667 8 -3.33333333 8 -6 8 C-6.33 8.66 -6.66 9.32 -7 10 C-7 7.03 -7 4.06 -7 1 C-5.5459375 1.0309375 -5.5459375 1.0309375 -4.0625 1.0625 C-1.12534105 1.35618499 -1.12534105 1.35618499 0 0 Z " fill="#585858" transform="translate(586,586)"/>
<path d="M0 0 C2 2 2 2 2.125 5.125 C2.08375 6.07375 2.0425 7.0225 2 8 C-0.66666667 8 -3.33333333 8 -6 8 C-6.33 8.66 -6.66 9.32 -7 10 C-7 7.03 -7 4.06 -7 1 C-5.5459375 1.0309375 -5.5459375 1.0309375 -4.0625 1.0625 C-1.12534105 1.35618499 -1.12534105 1.35618499 0 0 Z " fill="#585858" transform="translate(381,586)"/>
<path d="M0 0 C2 2 2 2 2.125 5.125 C2.08375 6.07375 2.0425 7.0225 2 8 C-0.66666667 8 -3.33333333 8 -6 8 C-6.33 8.66 -6.66 9.32 -7 10 C-7 7.03 -7 4.06 -7 1 C-5.5459375 1.0309375 -5.5459375 1.0309375 -4.0625 1.0625 C-1.12534105 1.35618499 -1.12534105 1.35618499 0 0 Z " fill="#585858" transform="translate(171,586)"/>
<path d="M0 0 C2 2 2 2 2.125 5.125 C2.08375 6.07375 2.0425 7.0225 2 8 C-0.66666667 8 -3.33333333 8 -6 8 C-6.33 8.66 -6.66 9.32 -7 10 C-7 7.03 -7 4.06 -7 1 C-5.5459375 1.0309375 -5.5459375 1.0309375 -4.0625 1.0625 C-1.12534105 1.35618499 -1.12534105 1.35618499 0 0 Z " fill="#585858" transform="translate(591,465)"/>
<path d="M0 0 C2 2 2 2 2.125 5.125 C2.08375 6.07375 2.0425 7.0225 2 8 C-0.66666667 8 -3.33333333 8 -6 8 C-6.33 8.66 -6.66 9.32 -7 10 C-7 7.03 -7 4.06 -7 1 C-5.5459375 1.0309375 -5.5459375 1.0309375 -4.0625 1.0625 C-1.12534105 1.35618499 -1.12534105 1.35618499 0 0 Z " fill="#585858" transform="translate(381,465)"/>
<path d="M0 0 C2 2 2 2 2.125 5.125 C2.08375 6.07375 2.0425 7.0225 2 8 C-0.66666667 8 -3.33333333 8 -6 8 C-6.33 8.66 -6.66 9.32 -7 10 C-7 7.03 -7 4.06 -7 1 C-5.5459375 1.0309375 -5.5459375 1.0309375 -4.0625 1.0625 C-1.12534105 1.35618499 -1.12534105 1.35618499 0 0 Z " fill="#585858" transform="translate(171,465)"/>
<path d="M0 0 C2 2 2 2 2.125 5.125 C2.08375 6.07375 2.0425 7.0225 2 8 C-0.97 8 -3.94 8 -7 8 C-6.67 6.68 -6.34 5.36 -6 4 C-6.33 3.67 -6.66 3.34 -7 3 C-6.67 2.34 -6.34 1.68 -6 1 C-3.0625 0.25 -3.0625 0.25 0 0 Z " fill="#424242" transform="translate(608,451)"/>
<path d="M0 0 C2 2 2 2 2.125 5.125 C2.08375 6.07375 2.0425 7.0225 2 8 C-0.97 8 -3.94 8 -7 8 C-6.67 6.68 -6.34 5.36 -6 4 C-6.33 3.67 -6.66 3.34 -7 3 C-6.67 2.34 -6.34 1.68 -6 1 C-3.0625 0.25 -3.0625 0.25 0 0 Z " fill="#424242" transform="translate(398,451)"/>
<path d="M0 0 C2 2 2 2 2.125 5.125 C2.08375 6.07375 2.0425 7.0225 2 8 C-0.97 8 -3.94 8 -7 8 C-6.67 6.68 -6.34 5.36 -6 4 C-6.33 3.67 -6.66 3.34 -7 3 C-6.67 2.34 -6.34 1.68 -6 1 C-3.0625 0.25 -3.0625 0.25 0 0 Z " fill="#424242" transform="translate(188,451)"/>
<path d="M0 0 C0.66 0 1.32 0 2 0 C2.66 1.65 3.32 3.3 4 5 C4.66 3.35 5.32 1.7 6 0 C6.99 0 7.98 0 9 0 C9 2.97 9 5.94 9 9 C7 9 5 9 3 9 C2.67 8.01 2.34 7.02 2 6 C1.34 6.99 0.68 7.98 0 9 C0 6.03 0 3.06 0 0 Z " fill="#323232" transform="translate(61,28)"/>
<path d="M0 0 C2.31 0.33 4.62 0.66 7 1 C7.5625 2.9375 7.5625 2.9375 8 5 C7.67 5.33 7.34 5.66 7 6 C7.33 6.66 7.66 7.32 8 8 C5.36 8 2.72 8 0 8 C0 5.36 0 2.72 0 0 Z " fill="#545454" transform="translate(558,572)"/>
<path d="M0 0 C2.31 0.33 4.62 0.66 7 1 C7.5625 2.9375 7.5625 2.9375 8 5 C7.67 5.33 7.34 5.66 7 6 C7.33 6.66 7.66 7.32 8 8 C5.36 8 2.72 8 0 8 C0 5.36 0 2.72 0 0 Z " fill="#545454" transform="translate(353,572)"/>
<path d="M0 0 C2.31 0.33 4.62 0.66 7 1 C7.5625 2.9375 7.5625 2.9375 8 5 C7.67 5.33 7.34 5.66 7 6 C7.33 6.66 7.66 7.32 8 8 C5.36 8 2.72 8 0 8 C0 5.36 0 2.72 0 0 Z " fill="#545454" transform="translate(143,572)"/>
<path d="M0 0 C1.67542976 0.28604898 3.34385343 0.61781233 5 1 C5 3.31 5 5.62 5 8 C3.34385343 8.38218767 1.67542976 8.71395102 0 9 C-1 8 -1 8 -1.125 4.5 C-1 1 -1 1 0 0 Z " fill="#585C57" transform="translate(551,203)"/>
<path d="M0 0 C1.67542976 0.28604898 3.34385343 0.61781233 5 1 C5 3.31 5 5.62 5 8 C3.34385343 8.38218767 1.67542976 8.71395102 0 9 C-1 8 -1 8 -1.125 4.5 C-1 1 -1 1 0 0 Z " fill="#585C57" transform="translate(341,203)"/>
<path d="M0 0 C1.67542976 0.28604898 3.34385343 0.61781233 5 1 C5 3.31 5 5.62 5 8 C3.34385343 8.38218767 1.67542976 8.71395102 0 9 C-1 8 -1 8 -1.125 4.5 C-1 1 -1 1 0 0 Z " fill="#585C57" transform="translate(131,203)"/>
<path d="M0 0 C1.98 0 3.96 0 6 0 C6.70074844 3.153368 7 5.72724974 7 9 C6.34 9 5.68 9 5 9 C5 7.68 5 6.36 5 5 C3.68 5 2.36 5 1 5 C0.67 6.32 0.34 7.64 0 9 C0 6.03 0 3.06 0 0 Z " fill="#535353" transform="translate(70,68)"/>
<path d="M0 0 C0.86625 0.2784375 0.86625 0.2784375 1.75 0.5625 C4.20692525 1.04023546 5.64397534 0.75729364 8 0 C8.68707555 2.49064888 9 4.37886292 9 7 C6.69 7 4.38 7 2 7 C1.34 4.69 0.68 2.38 0 0 Z " fill="#595959" transform="translate(660,573)"/>
<path d="M0 0 C0.86625 0.2784375 0.86625 0.2784375 1.75 0.5625 C4.20692525 1.04023546 5.64397534 0.75729364 8 0 C8.68707555 2.49064888 9 4.37886292 9 7 C6.69 7 4.38 7 2 7 C1.34 4.69 0.68 2.38 0 0 Z " fill="#595959" transform="translate(455,573)"/>
<path d="M0 0 C0.86625 0.2784375 0.86625 0.2784375 1.75 0.5625 C4.20692525 1.04023546 5.64397534 0.75729364 8 0 C8.68707555 2.49064888 9 4.37886292 9 7 C6.69 7 4.38 7 2 7 C1.34 4.69 0.68 2.38 0 0 Z " fill="#595959" transform="translate(245,573)"/>
<path d="M0 0 C-1.40844718 3.21524305 -3.10344786 5.32183868 -5.625 7.75 C-6.25664063 8.36359375 -6.88828125 8.9771875 -7.5390625 9.609375 C-8.02117188 10.06828125 -8.50328125 10.5271875 -9 11 C-11.31 9.02 -13.62 7.04 -16 5 C-15.01 4.67 -14.02 4.34 -13 4 C-10.8125 5.4375 -10.8125 5.4375 -9 7 C-8.51789062 6.4946875 -8.03578125 5.989375 -7.5390625 5.46875 C-6.90742187 4.8190625 -6.27578125 4.169375 -5.625 3.5 C-4.99851562 2.8503125 -4.37203125 2.200625 -3.7265625 1.53125 C-2 0 -2 0 0 0 Z " fill="#9AC85B" transform="translate(599,527)"/>
<path d="M0 0 C-1.40844718 3.21524305 -3.10344786 5.32183868 -5.625 7.75 C-6.25664062 8.36359375 -6.88828125 8.9771875 -7.5390625 9.609375 C-8.02117187 10.06828125 -8.50328125 10.5271875 -9 11 C-11.31 9.02 -13.62 7.04 -16 5 C-15.01 4.67 -14.02 4.34 -13 4 C-10.8125 5.4375 -10.8125 5.4375 -9 7 C-8.51789063 6.4946875 -8.03578125 5.989375 -7.5390625 5.46875 C-6.90742188 4.8190625 -6.27578125 4.169375 -5.625 3.5 C-4.99851562 2.8503125 -4.37203125 2.200625 -3.7265625 1.53125 C-2 0 -2 0 0 0 Z " fill="#9AC85B" transform="translate(394,527)"/>
<path d="M0 0 C-1.40844718 3.21524305 -3.10344786 5.32183868 -5.625 7.75 C-6.25664062 8.36359375 -6.88828125 8.9771875 -7.5390625 9.609375 C-8.02117187 10.06828125 -8.50328125 10.5271875 -9 11 C-11.31 9.02 -13.62 7.04 -16 5 C-15.01 4.67 -14.02 4.34 -13 4 C-10.8125 5.4375 -10.8125 5.4375 -9 7 C-8.51789063 6.4946875 -8.03578125 5.989375 -7.5390625 5.46875 C-6.90742188 4.8190625 -6.27578125 4.169375 -5.625 3.5 C-4.99851563 2.8503125 -4.37203125 2.200625 -3.7265625 1.53125 C-2 0 -2 0 0 0 Z " fill="#9AC85B" transform="translate(184,527)"/>
<path d="M0 0 C0.7425 0.185625 1.485 0.37125 2.25 0.5625 C4.94990963 0.99203108 6.44631077 0.85122974 9 0 C9.33 1.32 9.66 2.64 10 4 C8.68 4 7.36 4 6 4 C6 4.66 6 5.32 6 6 C7.32 5.67 8.64 5.34 10 5 C10 5.66 10 6.32 10 7 C7.36 7 4.72 7 2 7 C1.34 4.69 0.68 2.38 0 0 Z " fill="#3D403C" transform="translate(573,205)"/>
<path d="M0 0 C0.7425 0.185625 1.485 0.37125 2.25 0.5625 C4.94990963 0.99203108 6.44631077 0.85122974 9 0 C9.33 1.32 9.66 2.64 10 4 C8.68 4 7.36 4 6 4 C6 4.66 6 5.32 6 6 C7.32 5.67 8.64 5.34 10 5 C10 5.66 10 6.32 10 7 C7.36 7 4.72 7 2 7 C1.34 4.69 0.68 2.38 0 0 Z " fill="#3D403C" transform="translate(363,205)"/>
<path d="M0 0 C0.7425 0.185625 1.485 0.37125 2.25 0.5625 C4.94990963 0.99203108 6.44631077 0.85122974 9 0 C9.33 1.32 9.66 2.64 10 4 C8.68 4 7.36 4 6 4 C6 4.66 6 5.32 6 6 C7.32 5.67 8.64 5.34 10 5 C10 5.66 10 6.32 10 7 C7.36 7 4.72 7 2 7 C1.34 4.69 0.68 2.38 0 0 Z " fill="#3D403C" transform="translate(153,205)"/>
<path d="M0 0 C1.42944945 2.35438733 2.08661261 3.48032433 1.625 6.25 C1.41875 6.8275 1.2125 7.405 1 8 C-0.875 8.625 -0.875 8.625 -3 9 C-3.66 8.34 -4.32 7.68 -5 7 C-4.625 3.875 -4.625 3.875 -4 1 C-2.02 1.495 -2.02 1.495 0 2 C0 1.34 0 0.68 0 0 Z " fill="#DFE8F3" transform="translate(74,112)"/>
<path d="M0 0 C1.98 0 3.96 0 6 0 C6.33 1.32 6.66 2.64 7 4 C5.35 4.33 3.7 4.66 2 5 C2 6.32 2 7.64 2 9 C1.34 9 0.68 9 0 9 C0 6.03 0 3.06 0 0 Z " fill="#5B5B5B" transform="translate(522,571)"/>
<path d="M0 0 C1.98 0 3.96 0 6 0 C6.33 1.32 6.66 2.64 7 4 C5.35 4.33 3.7 4.66 2 5 C2 6.32 2 7.64 2 9 C1.34 9 0.68 9 0 9 C0 6.03 0 3.06 0 0 Z " fill="#5B5B5B" transform="translate(317,571)"/>
<path d="M0 0 C1.98 0 3.96 0 6 0 C6.33 1.32 6.66 2.64 7 4 C5.35 4.33 3.7 4.66 2 5 C2 6.32 2 7.64 2 9 C1.34 9 0.68 9 0 9 C0 6.03 0 3.06 0 0 Z " fill="#5B5B5B" transform="translate(107,571)"/>
<path d="M0 0 C0.33 0.66 0.66 1.32 1 2 C3.52733235 2.65555119 3.52733235 2.65555119 6 3 C5.67 4.98 5.34 6.96 5 9 C3.35 9 1.7 9 0 9 C0 6.03 0 3.06 0 0 Z " fill="#5D5D5D" transform="translate(570,450)"/>
<path d="M0 0 C0.33 0.66 0.66 1.32 1 2 C3.52733235 2.65555119 3.52733235 2.65555119 6 3 C5.67 4.98 5.34 6.96 5 9 C3.35 9 1.7 9 0 9 C0 6.03 0 3.06 0 0 Z " fill="#5D5D5D" transform="translate(360,450)"/>
<path d="M0 0 C0.33 0.66 0.66 1.32 1 2 C3.52733235 2.65555119 3.52733235 2.65555119 6 3 C5.67 4.98 5.34 6.96 5 9 C3.35 9 1.7 9 0 9 C0 6.03 0 3.06 0 0 Z " fill="#5D5D5D" transform="translate(150,450)"/>
<path d="M0 0 C2.31 0 4.62 0 7 0 C7 0.99 7 1.98 7 3 C5.35 3 3.7 3 2 3 C2 5.31 2 7.62 2 10 C1.01 9.67 0.02 9.34 -1 9 C-0.67 6.03 -0.34 3.06 0 0 Z " fill="#FF6B6B" transform="translate(71,170)"/>
<path d="M0 0 C1.32 0 2.64 0 4 0 C5.52491998 3.04983996 5.23562548 5.6423369 5 9 C3.5 10.9375 3.5 10.9375 2 12 C2 11.01 2 10.02 2 9 C1.34 9 0.68 9 0 9 C0 6.03 0 3.06 0 0 Z " fill="#5F5F5F" transform="translate(612,585)"/>
<path d="M0 0 C1.32 0 2.64 0 4 0 C5.52491998 3.04983996 5.23562548 5.6423369 5 9 C3.5 10.9375 3.5 10.9375 2 12 C2 11.01 2 10.02 2 9 C1.34 9 0.68 9 0 9 C0 6.03 0 3.06 0 0 Z " fill="#5F5F5F" transform="translate(407,585)"/>
<path d="M0 0 C1.32 0 2.64 0 4 0 C5.52491998 3.04983996 5.23562548 5.6423369 5 9 C3.5 10.9375 3.5 10.9375 2 12 C2 11.01 2 10.02 2 9 C1.34 9 0.68 9 0 9 C0 6.03 0 3.06 0 0 Z " fill="#5F5F5F" transform="translate(197,585)"/>
<path d="M0 0 C1.32 0 2.64 0 4 0 C5.52491998 3.04983996 5.23562548 5.6423369 5 9 C3.5 10.9375 3.5 10.9375 2 12 C2 11.01 2 10.02 2 9 C1.34 9 0.68 9 0 9 C0 6.03 0 3.06 0 0 Z " fill="#5F5F5F" transform="translate(617,464)"/>
<path d="M0 0 C1.32 0 2.64 0 4 0 C5.52491998 3.04983996 5.23562548 5.6423369 5 9 C3.5 10.9375 3.5 10.9375 2 12 C2 11.01 2 10.02 2 9 C1.34 9 0.68 9 0 9 C0 6.03 0 3.06 0 0 Z " fill="#5F5F5F" transform="translate(407,464)"/>
<path d="M0 0 C1.32 0 2.64 0 4 0 C5.52491998 3.04983996 5.23562548 5.6423369 5 9 C3.5 10.9375 3.5 10.9375 2 12 C2 11.01 2 10.02 2 9 C1.34 9 0.68 9 0 9 C0 6.03 0 3.06 0 0 Z " fill="#5F5F5F" transform="translate(197,464)"/>
<path d="M0 0 C1.2065625 0.0309375 1.2065625 0.0309375 2.4375 0.0625 C2.1075 2.3725 1.7775 4.6825 1.4375 7.0625 C-0.2125 6.7325 -1.8625 6.4025 -3.5625 6.0625 C-3.605221 4.39638095 -3.60313832 2.72867115 -3.5625 1.0625 C-2.5625 0.0625 -2.5625 0.0625 0 0 Z " fill="#7D7D7D" transform="translate(642.5625,572.9375)"/>
<path d="M0 0 C1.2065625 0.0309375 1.2065625 0.0309375 2.4375 0.0625 C2.1075 2.3725 1.7775 4.6825 1.4375 7.0625 C-0.2125 6.7325 -1.8625 6.4025 -3.5625 6.0625 C-3.605221 4.39638095 -3.60313832 2.72867115 -3.5625 1.0625 C-2.5625 0.0625 -2.5625 0.0625 0 0 Z " fill="#7D7D7D" transform="translate(437.5625,572.9375)"/>
<path d="M0 0 C1.2065625 0.0309375 1.2065625 0.0309375 2.4375 0.0625 C2.1075 2.3725 1.7775 4.6825 1.4375 7.0625 C-0.2125 6.7325 -1.8625 6.4025 -3.5625 6.0625 C-3.605221 4.39638095 -3.60313832 2.72867115 -3.5625 1.0625 C-2.5625 0.0625 -2.5625 0.0625 0 0 Z " fill="#7D7D7D" transform="translate(227.5625,572.9375)"/>
<path d="M0 0 C2.69082872 0.17635452 5.32851446 0.61835921 8 1 C7.01 2.485 7.01 2.485 6 4 C5.34 4 4.68 4 4 4 C3.67 4.99 3.34 5.98 3 7 C2.01 7 1.02 7 0 7 C-0.38133299 5.0085944 -0.71325582 3.00720923 -1 1 C-0.67 0.67 -0.34 0.34 0 0 Z " fill="#CFCFCF" transform="translate(606,572)"/>
<path d="M0 0 C2.69082872 0.17635452 5.32851446 0.61835921 8 1 C7.01 2.485 7.01 2.485 6 4 C5.34 4 4.68 4 4 4 C3.67 4.99 3.34 5.98 3 7 C2.01 7 1.02 7 0 7 C-0.38133299 5.0085944 -0.71325582 3.00720923 -1 1 C-0.67 0.67 -0.34 0.34 0 0 Z " fill="#CFCFCF" transform="translate(401,572)"/>
<path d="M0 0 C2.69082872 0.17635452 5.32851446 0.61835921 8 1 C7.01 2.485 7.01 2.485 6 4 C5.34 4 4.68 4 4 4 C3.67 4.99 3.34 5.98 3 7 C2.01 7 1.02 7 0 7 C-0.38133299 5.0085944 -0.71325582 3.00720923 -1 1 C-0.67 0.67 -0.34 0.34 0 0 Z " fill="#CFCFCF" transform="translate(191,572)"/>
<path d="M0 0 C2.97 0 5.94 0 9 0 C8.67 0.66 8.34 1.32 8 2 C7.34 1.67 6.68 1.34 6 1 C6 2.65 6 4.3 6 6 C6.99 5.67 7.98 5.34 9 5 C9 5.66 9 6.32 9 7 C7.68 7 6.36 7 5 7 C4.67 5.35 4.34 3.7 4 2 C3.34 2 2.68 2 2 2 C2 3.65 2 5.3 2 7 C1.34 7 0.68 7 0 7 C0 4.69 0 2.38 0 0 Z " fill="#575757" transform="translate(104,70)"/>
<path d="M0 0 C1.32 0 2.64 0 4 0 C4 2.97 4 5.94 4 9 C2.68 9 1.36 9 0 9 C0 6.03 0 3.06 0 0 Z " fill="#666666" transform="translate(577,450)"/>
<path d="M0 0 C1.32 0 2.64 0 4 0 C4 2.97 4 5.94 4 9 C2.68 9 1.36 9 0 9 C0 6.03 0 3.06 0 0 Z " fill="#666666" transform="translate(367,450)"/>
<path d="M0 0 C1.32 0 2.64 0 4 0 C4 2.97 4 5.94 4 9 C2.68 9 1.36 9 0 9 C0 6.03 0 3.06 0 0 Z " fill="#666666" transform="translate(157,450)"/>
<path d="M0 0 C2.0625 0.4375 2.0625 0.4375 4 1 C5.125 4.75 5.125 4.75 4 7 C2.35 6.67 0.7 6.34 -1 6 C-1.042721 4.33388095 -1.04063832 2.66617115 -1 1 C-0.67 0.67 -0.34 0.34 0 0 Z " fill="#686868" transform="translate(652,573)"/>
<path d="M0 0 C2.0625 0.4375 2.0625 0.4375 4 1 C5.125 4.75 5.125 4.75 4 7 C2.35 6.67 0.7 6.34 -1 6 C-1.042721 4.33388095 -1.04063832 2.66617115 -1 1 C-0.67 0.67 -0.34 0.34 0 0 Z " fill="#686868" transform="translate(447,573)"/>
<path d="M0 0 C2.0625 0.4375 2.0625 0.4375 4 1 C5.125 4.75 5.125 4.75 4 7 C2.35 6.67 0.7 6.34 -1 6 C-1.042721 4.33388095 -1.04063832 2.66617115 -1 1 C-0.67 0.67 -0.34 0.34 0 0 Z " fill="#686868" transform="translate(237,573)"/>
<path d="M0 0 C4.75 1.875 4.75 1.875 7 3 C7 3.66 7 4.32 7 5 C2.61538462 8 2.61538462 8 0 8 C0 5.36 0 2.72 0 0 Z " fill="#FBFDF8" transform="translate(614,407)"/>
<path d="M0 0 C4.75 1.875 4.75 1.875 7 3 C7 3.66 7 4.32 7 5 C2.61538462 8 2.61538462 8 0 8 C0 5.36 0 2.72 0 0 Z " fill="#FBFDF8" transform="translate(404,407)"/>
<path d="M0 0 C4.75 1.875 4.75 1.875 7 3 C7 3.66 7 4.32 7 5 C2.61538462 8 2.61538462 8 0 8 C0 5.36 0 2.72 0 0 Z " fill="#FBFDF8" transform="translate(194,407)"/>
<path d="M0 0 C2.475 0.495 2.475 0.495 5 1 C5 2.65 5 4.3 5 6 C4.360625 6.12375 3.72125 6.2475 3.0625 6.375 C2.0415625 6.684375 2.0415625 6.684375 1 7 C0.67 7.66 0.34 8.32 0 9 C0 6.03 0 3.06 0 0 Z " fill="#656565" transform="translate(151,70)"/>
<path d="M0 0 C2.125 0.375 2.125 0.375 4 1 C4 2.65 4 4.3 4 6 C2.35 6.33 0.7 6.66 -1 7 C-1.625 4.625 -1.625 4.625 -2 2 C-1.34 1.34 -0.68 0.68 0 0 Z " fill="#767676" transform="translate(139,70)"/>
<path d="M0 0 C2.0625 0.4375 2.0625 0.4375 4 1 C4.33 2.98 4.66 4.96 5 7 C3.02 7 1.04 7 -1 7 C-1.04254356 5.00045254 -1.04080783 2.99958364 -1 1 C-0.67 0.67 -0.34 0.34 0 0 Z " fill="#575757" transform="translate(606,587)"/>
<path d="M0 0 C2.0625 0.4375 2.0625 0.4375 4 1 C4.33 2.98 4.66 4.96 5 7 C3.02 7 1.04 7 -1 7 C-1.04254356 5.00045254 -1.04080783 2.99958364 -1 1 C-0.67 0.67 -0.34 0.34 0 0 Z " fill="#575757" transform="translate(401,587)"/>
<path d="M0 0 C2.0625 0.4375 2.0625 0.4375 4 1 C4.33 2.98 4.66 4.96 5 7 C3.02 7 1.04 7 -1 7 C-1.04254356 5.00045254 -1.04080783 2.99958364 -1 1 C-0.67 0.67 -0.34 0.34 0 0 Z " fill="#575757" transform="translate(191,587)"/>
<path d="M0 0 C2.0625 0.4375 2.0625 0.4375 4 1 C4.33 2.98 4.66 4.96 5 7 C3.02 7 1.04 7 -1 7 C-1.04254356 5.00045254 -1.04080783 2.99958364 -1 1 C-0.67 0.67 -0.34 0.34 0 0 Z " fill="#575757" transform="translate(552,573)"/>
<path d="M0 0 C2.0625 0.4375 2.0625 0.4375 4 1 C4.33 2.98 4.66 4.96 5 7 C3.02 7 1.04 7 -1 7 C-1.04254356 5.00045254 -1.04080783 2.99958364 -1 1 C-0.67 0.67 -0.34 0.34 0 0 Z " fill="#575757" transform="translate(347,573)"/>
<path d="M0 0 C2.0625 0.4375 2.0625 0.4375 4 1 C4.33 2.98 4.66 4.96 5 7 C3.02 7 1.04 7 -1 7 C-1.04254356 5.00045254 -1.04080783 2.99958364 -1 1 C-0.67 0.67 -0.34 0.34 0 0 Z " fill="#575757" transform="translate(137,573)"/>
<path d="M0 0 C2.0625 0.4375 2.0625 0.4375 4 1 C4.33 2.98 4.66 4.96 5 7 C3.02 7 1.04 7 -1 7 C-1.04254356 5.00045254 -1.04080783 2.99958364 -1 1 C-0.67 0.67 -0.34 0.34 0 0 Z " fill="#575757" transform="translate(611,466)"/>
<path d="M0 0 C2.0625 0.4375 2.0625 0.4375 4 1 C4.33 2.98 4.66 4.96 5 7 C3.02 7 1.04 7 -1 7 C-1.04254356 5.00045254 -1.04080783 2.99958364 -1 1 C-0.67 0.67 -0.34 0.34 0 0 Z " fill="#575757" transform="translate(401,466)"/>
<path d="M0 0 C2.0625 0.4375 2.0625 0.4375 4 1 C4.33 2.98 4.66 4.96 5 7 C3.02 7 1.04 7 -1 7 C-1.04254356 5.00045254 -1.04080783 2.99958364 -1 1 C-0.67 0.67 -0.34 0.34 0 0 Z " fill="#575757" transform="translate(191,466)"/>
<path d="M0 0 C2.0625 0.4375 2.0625 0.4375 4 1 C4.33 2.98 4.66 4.96 5 7 C3.02 7 1.04 7 -1 7 C-1.04254356 5.00045254 -1.04080783 2.99958364 -1 1 C-0.67 0.67 -0.34 0.34 0 0 Z " fill="#575757" transform="translate(627,452)"/>
<path d="M0 0 C2.0625 0.4375 2.0625 0.4375 4 1 C4.33 2.98 4.66 4.96 5 7 C3.02 7 1.04 7 -1 7 C-1.04254356 5.00045254 -1.04080783 2.99958364 -1 1 C-0.67 0.67 -0.34 0.34 0 0 Z " fill="#575757" transform="translate(417,452)"/>
<path d="M0 0 C2.0625 0.4375 2.0625 0.4375 4 1 C4.33 2.98 4.66 4.96 5 7 C3.02 7 1.04 7 -1 7 C-1.04254356 5.00045254 -1.04080783 2.99958364 -1 1 C-0.67 0.67 -0.34 0.34 0 0 Z " fill="#575757" transform="translate(207,452)"/>
<path d="M0 0 C2.2109885 0.42793326 3.98119242 0.99059621 6 2 C6 2.66 6 3.32 6 4 C5.34 4 4.68 4 4 4 C3.67 4.99 3.34 5.98 3 7 C2.01 7 1.02 7 0 7 C-0.38133299 5.0085944 -0.71325582 3.00720923 -1 1 C-0.67 0.67 -0.34 0.34 0 0 Z " fill="#D4D4D4" transform="translate(385,179)"/>
<path d="M0 0 C-0.66 2.31 -1.32 4.62 -2 7 C-3.65 7 -5.3 7 -7 7 C-7.33 5.02 -7.66 3.04 -8 1 C-5.1080406 0.03601353 -3.0005625 0 0 0 Z " fill="#393939" transform="translate(576,573)"/>
<path d="M0 0 C-0.66 2.31 -1.32 4.62 -2 7 C-3.65 7 -5.3 7 -7 7 C-7.33 5.02 -7.66 3.04 -8 1 C-5.1080406 0.03601353 -3.0005625 0 0 0 Z " fill="#393939" transform="translate(371,573)"/>
<path d="M0 0 C-0.66 2.31 -1.32 4.62 -2 7 C-3.65 7 -5.3 7 -7 7 C-7.33 5.02 -7.66 3.04 -8 1 C-5.1080406 0.03601353 -3.0005625 0 0 0 Z " fill="#393939" transform="translate(161,573)"/>
<path d="M0 0 C0.99 0 1.98 0 3 0 C2.67 1.65 2.34 3.3 2 5 C1.34 5 0.68 5 0 5 C0 5.99 0 6.98 0 8 C0.66 8 1.32 8 2 8 C2 7.34 2 6.68 2 6 C2.66 6 3.32 6 4 6 C4.33 6.99 4.66 7.98 5 9 C3.02 9 1.04 9 -1 9 C-2.0326802 6.21176345 -2.04509293 5.1322726 -1.0625 2.25 C-0.711875 1.5075 -0.36125 0.765 0 0 Z " fill="#3B3B3B" transform="translate(594,571)"/>
<path d="M0 0 C3 1 3 1 4.1875 3.0625 C4.455625 3.701875 4.72375 4.34125 5 5 C5.33 3.35 5.66 1.7 6 0 C6.33 0 6.66 0 7 0 C7 2.97 7 5.94 7 9 C6.34 9 5.68 9 5 9 C3.375 6.5 3.375 6.5 2 4 C1.67 5.65 1.34 7.3 1 9 C0.67 9 0.34 9 0 9 C0 6.03 0 3.06 0 0 Z " fill="#1A1A1A" transform="translate(530,571)"/>
<path d="M0 0 C0.99 0 1.98 0 3 0 C2.67 1.65 2.34 3.3 2 5 C1.34 5 0.68 5 0 5 C0 5.99 0 6.98 0 8 C0.66 8 1.32 8 2 8 C2 7.34 2 6.68 2 6 C2.66 6 3.32 6 4 6 C4.33 6.99 4.66 7.98 5 9 C3.02 9 1.04 9 -1 9 C-2.0326802 6.21176345 -2.04509293 5.1322726 -1.0625 2.25 C-0.711875 1.5075 -0.36125 0.765 0 0 Z " fill="#3B3B3B" transform="translate(389,571)"/>
<path d="M0 0 C3 1 3 1 4.1875 3.0625 C4.455625 3.701875 4.72375 4.34125 5 5 C5.33 3.35 5.66 1.7 6 0 C6.33 0 6.66 0 7 0 C7 2.97 7 5.94 7 9 C6.34 9 5.68 9 5 9 C3.375 6.5 3.375 6.5 2 4 C1.67 5.65 1.34 7.3 1 9 C0.67 9 0.34 9 0 9 C0 6.03 0 3.06 0 0 Z " fill="#1A1A1A" transform="translate(325,571)"/>
<path d="M0 0 C0.99 0 1.98 0 3 0 C2.67 1.65 2.34 3.3 2 5 C1.34 5 0.68 5 0 5 C0 5.99 0 6.98 0 8 C0.66 8 1.32 8 2 8 C2 7.34 2 6.68 2 6 C2.66 6 3.32 6 4 6 C4.33 6.99 4.66 7.98 5 9 C3.02 9 1.04 9 -1 9 C-2.0326802 6.21176345 -2.04509293 5.1322726 -1.0625 2.25 C-0.711875 1.5075 -0.36125 0.765 0 0 Z " fill="#3B3B3B" transform="translate(179,571)"/>
<path d="M0 0 C3 1 3 1 4.1875 3.0625 C4.455625 3.701875 4.72375 4.34125 5 5 C5.33 3.35 5.66 1.7 6 0 C6.33 0 6.66 0 7 0 C7 2.97 7 5.94 7 9 C6.34 9 5.68 9 5 9 C3.375 6.5 3.375 6.5 2 4 C1.67 5.65 1.34 7.3 1 9 C0.67 9 0.34 9 0 9 C0 6.03 0 3.06 0 0 Z " fill="#1A1A1A" transform="translate(115,571)"/>
<path d="M0 0 C1.65 0 3.3 0 5 0 C5.33 1.32 5.66 2.64 6 4 C4.35 4.33 2.7 4.66 1 5 C0.67 6.32 0.34 7.64 0 9 C0 6.03 0 3.06 0 0 Z " fill="#4B4B4B" transform="translate(556,450)"/>
<path d="M0 0 C1.65 0 3.3 0 5 0 C5.33 1.32 5.66 2.64 6 4 C4.35 4.33 2.7 4.66 1 5 C0.67 6.32 0.34 7.64 0 9 C0 6.03 0 3.06 0 0 Z " fill="#4B4B4B" transform="translate(346,450)"/>
<path d="M0 0 C1.65 0 3.3 0 5 0 C5.33 1.32 5.66 2.64 6 4 C4.35 4.33 2.7 4.66 1 5 C0.67 6.32 0.34 7.64 0 9 C0 6.03 0 3.06 0 0 Z " fill="#4B4B4B" transform="translate(136,450)"/>
<path d="M0 0 C0.99 0.33 1.98 0.66 3 1 C3.73046875 2.84765625 3.73046875 2.84765625 4.1875 5.0625 C4.34605469 5.79597656 4.50460937 6.52945313 4.66796875 7.28515625 C4.83232422 8.13400391 4.83232422 8.13400391 5 9 C4.34 9 3.68 9 3 9 C3 8.01 3 7.02 3 6 C-0.11785113 6.64644661 -0.11785113 6.64644661 -1 9 C-1.66 8.67 -2.32 8.34 -3 8 C-2.01 5.36 -1.02 2.72 0 0 Z " fill="#3E3E3E" transform="translate(377,178)"/>
<path d="M0 0 C1.66611905 -0.042721 3.33382885 -0.04063832 5 0 C6 1 6 1 6.0625 4.0625 C6.041875 5.031875 6.02125 6.00125 6 7 C5.34 7 4.68 7 4 7 C4 5.35 4 3.7 4 2 C3.34 2 2.68 2 2 2 C2 3.65 2 5.3 2 7 C1.34 7 0.68 7 0 7 C0 4.69 0 2.38 0 0 Z " fill="#595959" transform="translate(619,573)"/>
<path d="M0 0 C1.66611905 -0.042721 3.33382885 -0.04063832 5 0 C6 1 6 1 6.0625 4.0625 C6.041875 5.031875 6.02125 6.00125 6 7 C5.34 7 4.68 7 4 7 C4 5.35 4 3.7 4 2 C3.34 2 2.68 2 2 2 C2 3.65 2 5.3 2 7 C1.34 7 0.68 7 0 7 C0 4.69 0 2.38 0 0 Z " fill="#595959" transform="translate(414,573)"/>
<path d="M0 0 C1.66611905 -0.042721 3.33382885 -0.04063832 5 0 C6 1 6 1 6.0625 4.0625 C6.041875 5.031875 6.02125 6.00125 6 7 C5.34 7 4.68 7 4 7 C4 5.35 4 3.7 4 2 C3.34 2 2.68 2 2 2 C2 3.65 2 5.3 2 7 C1.34 7 0.68 7 0 7 C0 4.69 0 2.38 0 0 Z " fill="#595959" transform="translate(204,573)"/>
<path d="M0 0 C2.0625 0.4375 2.0625 0.4375 4 1 C4 2.65 4 4.3 4 6 C2.0625 6.5625 2.0625 6.5625 0 7 C-1 6 -1 6 -1.125 3.5 C-1 1 -1 1 0 0 Z " fill="#747474" transform="translate(92,70)"/>
<path d="M0 0 C2.00720923 0.28674418 4.0085944 0.61866701 6 1 C6 1.66 6 2.32 6 3 C5.01 3.495 5.01 3.495 4 4 C3.67 4.99 3.34 5.98 3 7 C1.68 6.67 0.36 6.34 -1 6 C-1.042721 4.33388095 -1.04063832 2.66617115 -1 1 C-0.67 0.67 -0.34 0.34 0 0 Z " fill="#EFEFEF" transform="translate(127,69)"/>
<path d="M0 0 C2.0625 0.4375 2.0625 0.4375 4 1 C4 1.99 4 2.98 4 4 C2.68 4 1.36 4 0 4 C0 4.66 0 5.32 0 6 C1.32 5.67 2.64 5.34 4 5 C3.67 5.66 3.34 6.32 3 7 C1.35 6.67 -0.3 6.34 -2 6 C-1.125 1.125 -1.125 1.125 0 0 Z " fill="#414141" transform="translate(634,573)"/>
<path d="M0 0 C1.32 0 2.64 0 4 0 C4.33 2.31 4.66 4.62 5 7 C3.35 7 1.7 7 0 7 C0 5.68 0 4.36 0 3 C0.99 3 1.98 3 3 3 C3 2.34 3 1.68 3 1 C2.01 1.33 1.02 1.66 0 2 C0 1.34 0 0.68 0 0 Z " fill="#4C4C4C" transform="translate(577,573)"/>
<path d="M0 0 C2.0625 0.4375 2.0625 0.4375 4 1 C4 1.99 4 2.98 4 4 C2.68 4 1.36 4 0 4 C0 4.66 0 5.32 0 6 C1.32 5.67 2.64 5.34 4 5 C3.67 5.66 3.34 6.32 3 7 C1.35 6.67 -0.3 6.34 -2 6 C-1.125 1.125 -1.125 1.125 0 0 Z " fill="#414141" transform="translate(429,573)"/>
<path d="M0 0 C1.32 0 2.64 0 4 0 C4.33 2.31 4.66 4.62 5 7 C3.35 7 1.7 7 0 7 C0 5.68 0 4.36 0 3 C0.99 3 1.98 3 3 3 C3 2.34 3 1.68 3 1 C2.01 1.33 1.02 1.66 0 2 C0 1.34 0 0.68 0 0 Z " fill="#4C4C4C" transform="translate(372,573)"/>
<path d="M0 0 C2.0625 0.4375 2.0625 0.4375 4 1 C4 1.99 4 2.98 4 4 C2.68 4 1.36 4 0 4 C0 4.66 0 5.32 0 6 C1.32 5.67 2.64 5.34 4 5 C3.67 5.66 3.34 6.32 3 7 C1.35 6.67 -0.3 6.34 -2 6 C-1.125 1.125 -1.125 1.125 0 0 Z " fill="#414141" transform="translate(219,573)"/>
<path d="M0 0 C1.32 0 2.64 0 4 0 C4.33 2.31 4.66 4.62 5 7 C3.35 7 1.7 7 0 7 C0 5.68 0 4.36 0 3 C0.99 3 1.98 3 3 3 C3 2.34 3 1.68 3 1 C2.01 1.33 1.02 1.66 0 2 C0 1.34 0 0.68 0 0 Z " fill="#4C4C4C" transform="translate(162,573)"/>
<path d="M0 0 C0.66 0 1.32 0 2 0 C3.6875 1.75 3.6875 1.75 5 4 C4.6875 6.25 4.6875 6.25 4 8 C2.68 8.33 1.36 8.66 0 9 C0 6.03 0 3.06 0 0 Z " fill="#848981" transform="translate(564,203)"/>
<path d="M0 0 C0.66 0 1.32 0 2 0 C3.6875 1.75 3.6875 1.75 5 4 C4.6875 6.25 4.6875 6.25 4 8 C2.68 8.33 1.36 8.66 0 9 C0 6.03 0 3.06 0 0 Z " fill="#848981" transform="translate(354,203)"/>
<path d="M0 0 C0.66 0 1.32 0 2 0 C3.6875 1.75 3.6875 1.75 5 4 C4.6875 6.25 4.6875 6.25 4 8 C2.68 8.33 1.36 8.66 0 9 C0 6.03 0 3.06 0 0 Z " fill="#848981" transform="translate(144,203)"/>
<path d="M0 0 C2.0625 0.4375 2.0625 0.4375 4 1 C4 1.99 4 2.98 4 4 C2.68 4 1.36 4 0 4 C0 4.66 0 5.32 0 6 C1.32 5.67 2.64 5.34 4 5 C3.67 5.66 3.34 6.32 3 7 C1.35 6.67 -0.3 6.34 -2 6 C-1.125 1.125 -1.125 1.125 0 0 Z " fill="#414141" transform="translate(552,140)"/>
<path d="M0 0 C2.0625 0.4375 2.0625 0.4375 4 1 C4 1.99 4 2.98 4 4 C2.68 4 1.36 4 0 4 C0 4.66 0 5.32 0 6 C1.32 5.67 2.64 5.34 4 5 C3.67 5.66 3.34 6.32 3 7 C1.35 6.67 -0.3 6.34 -2 6 C-1.125 1.125 -1.125 1.125 0 0 Z " fill="#414141" transform="translate(342,140)"/>
<path d="M0 0 C2.0625 0.4375 2.0625 0.4375 4 1 C4 1.99 4 2.98 4 4 C2.68 4 1.36 4 0 4 C0 4.66 0 5.32 0 6 C1.32 5.67 2.64 5.34 4 5 C3.67 5.66 3.34 6.32 3 7 C1.35 6.67 -0.3 6.34 -2 6 C-1.125 1.125 -1.125 1.125 0 0 Z " fill="#414141" transform="translate(132,140)"/>
<path d="M0 0 C2.64 0 5.28 0 8 0 C8 0.33 8 0.66 8 1 C5.69 1 3.38 1 1 1 C0.67 3.31 0.34 5.62 0 8 C-0.99 8 -1.98 8 -3 8 C-3.144375 7.38125 -3.28875 6.7625 -3.4375 6.125 C-3.93152225 3.96741678 -3.93152225 3.96741678 -5 2 C-3.35 2 -1.7 2 0 2 C0 1.34 0 0.68 0 0 Z " fill="#D6D6D6" transform="translate(510,135)"/>
<path d="M0 0 C2.64 0 5.28 0 8 0 C8 0.33 8 0.66 8 1 C5.69 1 3.38 1 1 1 C0.67 3.31 0.34 5.62 0 8 C-0.99 8 -1.98 8 -3 8 C-3.144375 7.38125 -3.28875 6.7625 -3.4375 6.125 C-3.93152225 3.96741678 -3.93152225 3.96741678 -5 2 C-3.35 2 -1.7 2 0 2 C0 1.34 0 0.68 0 0 Z " fill="#D6D6D6" transform="translate(300,135)"/>
<path d="M0 0 C2.64 0 5.28 0 8 0 C8 0.33 8 0.66 8 1 C5.69 1 3.38 1 1 1 C0.67 3.31 0.34 5.62 0 8 C-0.99 8 -1.98 8 -3 8 C-3.144375 7.38125 -3.28875 6.7625 -3.4375 6.125 C-3.93152225 3.96741678 -3.93152225 3.96741678 -5 2 C-3.35 2 -1.7 2 0 2 C0 1.34 0 0.68 0 0 Z " fill="#D6D6D6" transform="translate(90,135)"/>
<path d="M0 0 C2.0625 0.4375 2.0625 0.4375 4 1 C4 1.99 4 2.98 4 4 C2.68 4 1.36 4 0 4 C0 4.66 0 5.32 0 6 C1.32 5.67 2.64 5.34 4 5 C3.67 5.66 3.34 6.32 3 7 C1.35 6.67 -0.3 6.34 -2 6 C-1.125 1.125 -1.125 1.125 0 0 Z " fill="#4B4B4B" transform="translate(116,70)"/>
<path d="M0 0 C1.32 0 2.64 0 4 0 C4.33 2.64 4.66 5.28 5 8 C3.35 8.33 1.7 8.66 0 9 C0 8.01 0 7.02 0 6 C1.485 6.99 1.485 6.99 3 8 C3 7.01 3 6.02 3 5 C2.34 4.67 1.68 4.34 1 4 C1.66 4 2.32 4 3 4 C3 3.34 3 2.68 3 2 C1.68 2.33 0.36 2.66 -1 3 C-0.67 2.01 -0.34 1.02 0 0 Z " fill="#424242" transform="translate(561,138)"/>
<path d="M0 0 C1.98 0 3.96 0 6 0 C6 2.64 6 5.28 6 8 C4.35 8 2.7 8 1 8 C1.66 6.02 2.32 4.04 3 2 C2.01 1.34 1.02 0.68 0 0 Z " fill="#828282" transform="translate(530,138)"/>
<path d="M0 0 C1.98 0 3.96 0 6 0 C6 2.64 6 5.28 6 8 C4.35 8 2.7 8 1 8 C1.66 6.02 2.32 4.04 3 2 C2.01 1.34 1.02 0.68 0 0 Z " fill="#828282" transform="translate(320,138)"/>
<path d="M0 0 C1.98 0 3.96 0 6 0 C6 2.64 6 5.28 6 8 C4.35 8 2.7 8 1 8 C1.66 6.02 2.32 4.04 3 2 C2.01 1.34 1.02 0.68 0 0 Z " fill="#828282" transform="translate(110,138)"/>
<path d="M0 0 C0.66 0 1.32 0 2 0 C2.33 1.65 2.66 3.3 3 5 C3.66 5 4.32 5 5 5 C5.33 3.35 5.66 1.7 6 0 C6.66 0.33 7.32 0.66 8 1 C7.01 3.64 6.02 6.28 5 9 C4.34 9 3.68 9 3 9 C2.01 6.03 1.02 3.06 0 0 Z " fill="#444444" transform="translate(89,108)"/>
<path d="M0 0 C2.0625 0.4375 2.0625 0.4375 4 1 C4 2.65 4 4.3 4 6 C2.0625 6.5625 2.0625 6.5625 0 7 C-1 6 -1 6 -1.125 3.5 C-1 1 -1 1 0 0 Z " fill="#D1D1D1" transform="translate(594,451)"/>
<path d="M0 0 C2.0625 0.4375 2.0625 0.4375 4 1 C4 2.65 4 4.3 4 6 C2.0625 6.5625 2.0625 6.5625 0 7 C-1 6 -1 6 -1.125 3.5 C-1 1 -1 1 0 0 Z " fill="#D1D1D1" transform="translate(384,451)"/>
<path d="M0 0 C2.0625 0.4375 2.0625 0.4375 4 1 C4 2.65 4 4.3 4 6 C2.0625 6.5625 2.0625 6.5625 0 7 C-1 6 -1 6 -1.125 3.5 C-1 1 -1 1 0 0 Z " fill="#D1D1D1" transform="translate(174,451)"/>
<path d="M0 0 C1.65 0.33 3.3 0.66 5 1 C5 2.32 5 3.64 5 5 C3.02 5 1.04 5 -1 5 C-0.67 3.35 -0.34 1.7 0 0 Z " fill="#02892C" transform="translate(532,201)"/>
<path d="M0 0 C1.65 0.33 3.3 0.66 5 1 C5 2.32 5 3.64 5 5 C3.02 5 1.04 5 -1 5 C-0.67 3.35 -0.34 1.7 0 0 Z " fill="#02892C" transform="translate(322,201)"/>
<path d="M0 0 C1.65 0.33 3.3 0.66 5 1 C5 2.32 5 3.64 5 5 C3.02 5 1.04 5 -1 5 C-0.67 3.35 -0.34 1.7 0 0 Z " fill="#02892C" transform="translate(112,201)"/>
<path d="M0 0 C0.66 0 1.32 0 2 0 C2.66 1.32 3.32 2.64 4 4 C-0.29 4 -4.58 4 -9 4 C-9 3.34 -9 2.68 -9 2 C-4.545 1.505 -4.545 1.505 0 1 C0 0.67 0 0.34 0 0 Z " fill="#CCCCCC" transform="translate(57,71)"/>
<path d="M0 0 C0.66 0 1.32 0 2 0 C2.33 0.66 2.66 1.32 3 2 C3.99 1.34 4.98 0.68 6 0 C5.43454163 3.95820859 4.19097652 6.6659053 2 10 C0.41497329 6.82994658 0.39614933 3.50875122 0 0 Z " fill="#484848" transform="translate(632,452)"/>
<path d="M0 0 C0.66 0 1.32 0 2 0 C2.33 0.66 2.66 1.32 3 2 C3.99 1.34 4.98 0.68 6 0 C5.43454163 3.95820859 4.19097652 6.6659053 2 10 C0.41497329 6.82994658 0.39614933 3.50875122 0 0 Z " fill="#484848" transform="translate(422,452)"/>
<path d="M0 0 C0.66 0 1.32 0 2 0 C2.33 0.66 2.66 1.32 3 2 C3.99 1.34 4.98 0.68 6 0 C5.43454163 3.95820859 4.19097652 6.6659053 2 10 C0.41497329 6.82994658 0.39614933 3.50875122 0 0 Z " fill="#484848" transform="translate(212,452)"/>
<path d="M0 0 C0 1.98 0 3.96 0 6 C-1.32 6.33 -2.64 6.66 -4 7 C-4.6875 5.1875 -4.6875 5.1875 -5 3 C-3.38441968 0.84589291 -2.74502455 0 0 0 Z " fill="#D5D5D5" transform="translate(576,586)"/>
<path d="M0 0 C0 1.98 0 3.96 0 6 C-1.32 6.33 -2.64 6.66 -4 7 C-4.6875 5.1875 -4.6875 5.1875 -5 3 C-3.38441968 0.84589291 -2.74502455 0 0 0 Z " fill="#D5D5D5" transform="translate(371,586)"/>
<path d="M0 0 C0 1.98 0 3.96 0 6 C-1.32 6.33 -2.64 6.66 -4 7 C-4.6875 5.1875 -4.6875 5.1875 -5 3 C-3.38441968 0.84589291 -2.74502455 0 0 0 Z " fill="#D5D5D5" transform="translate(161,586)"/>
<path d="M0 0 C1.485 0.99 1.485 0.99 3 2 C3.66 1.34 4.32 0.68 5 0 C4.49287967 3.71888239 3.88391785 6.73454239 2 10 C1.34 10 0.68 10 0 10 C0 6.7 0 3.4 0 0 Z " fill="#464646" transform="translate(583,573)"/>
<path d="M0 0 C1.485 0.99 1.485 0.99 3 2 C3.66 1.34 4.32 0.68 5 0 C4.49287967 3.71888239 3.88391785 6.73454239 2 10 C1.34 10 0.68 10 0 10 C0 6.7 0 3.4 0 0 Z " fill="#464646" transform="translate(378,573)"/>
<path d="M0 0 C1.485 0.99 1.485 0.99 3 2 C3.66 1.34 4.32 0.68 5 0 C4.49287967 3.71888239 3.88391785 6.73454239 2 10 C1.34 10 0.68 10 0 10 C0 6.7 0 3.4 0 0 Z " fill="#464646" transform="translate(168,573)"/>
<path d="M0 0 C0 1.98 0 3.96 0 6 C-1.32 6.33 -2.64 6.66 -4 7 C-4.6875 5.1875 -4.6875 5.1875 -5 3 C-3.38441968 0.84589291 -2.74502455 0 0 0 Z " fill="#D5D5D5" transform="translate(581,465)"/>
<path d="M0 0 C0 1.98 0 3.96 0 6 C-1.32 6.33 -2.64 6.66 -4 7 C-4.6875 5.1875 -4.6875 5.1875 -5 3 C-3.38441968 0.84589291 -2.74502455 0 0 0 Z " fill="#D5D5D5" transform="translate(371,465)"/>
<path d="M0 0 C0 1.98 0 3.96 0 6 C-1.32 6.33 -2.64 6.66 -4 7 C-4.6875 5.1875 -4.6875 5.1875 -5 3 C-3.38441968 0.84589291 -2.74502455 0 0 0 Z " fill="#D5D5D5" transform="translate(161,465)"/>
<path d="M0 0 C2.475 0.99 2.475 0.99 5 2 C5 2.99 5 3.98 5 5 C3.35 5.66 1.7 6.32 0 7 C0 4.69 0 2.38 0 0 Z " fill="#EEF6E2" transform="translate(576,422)"/>
<path d="M0 0 C2.475 0.99 2.475 0.99 5 2 C5 2.99 5 3.98 5 5 C3.35 5.66 1.7 6.32 0 7 C0 4.69 0 2.38 0 0 Z " fill="#EEF6E2" transform="translate(366,422)"/>
<path d="M0 0 C2.475 0.99 2.475 0.99 5 2 C5 2.99 5 3.98 5 5 C3.35 5.66 1.7 6.32 0 7 C0 4.69 0 2.38 0 0 Z " fill="#EEF6E2" transform="translate(156,422)"/>
<path d="M0 0 C1.98 0.99 3.96 1.98 6 3 C4.71034824 4.37562854 3.37310707 5.70766393 2 7 C1.34 7 0.68 7 0 7 C0 4.69 0 2.38 0 0 Z " fill="#EEF6E2" transform="translate(576,393)"/>
<path d="M0 0 C1.98 0.99 3.96 1.98 6 3 C4.71034824 4.37562854 3.37310707 5.70766393 2 7 C1.34 7 0.68 7 0 7 C0 4.69 0 2.38 0 0 Z " fill="#EEF6E2" transform="translate(366,393)"/>
<path d="M0 0 C1.98 0.99 3.96 1.98 6 3 C4.71034824 4.37562854 3.37310707 5.70766393 2 7 C1.34 7 0.68 7 0 7 C0 4.69 0 2.38 0 0 Z " fill="#EEF6E2" transform="translate(156,393)"/>
<path d="M0 0 C1.98 0.66 3.96 1.32 6 2 C6 2.66 6 3.32 6 4 C4.02 4.66 2.04 5.32 0 6 C0 4.02 0 2.04 0 0 Z " fill="#F0F7E7" transform="translate(576,408)"/>
<path d="M0 0 C1.98 0.66 3.96 1.32 6 2 C6 2.66 6 3.32 6 4 C4.02 4.66 2.04 5.32 0 6 C0 4.02 0 2.04 0 0 Z " fill="#F0F7E7" transform="translate(366,408)"/>
<path d="M0 0 C1.98 0.66 3.96 1.32 6 2 C6 2.66 6 3.32 6 4 C4.02 4.66 2.04 5.32 0 6 C0 4.02 0 2.04 0 0 Z " fill="#F0F7E7" transform="translate(156,408)"/>
<path d="M0 0 C2 2 2 2 2.125 5.125 C2.08375 6.07375 2.0425 7.0225 2 8 C0.68 7.67 -0.64 7.34 -2 7 C-2.33 5.02 -2.66 3.04 -3 1 C-2.01 0.67 -1.02 0.34 0 0 Z " fill="#6C6C6C" transform="translate(608,451)"/>
<path d="M0 0 C2 2 2 2 2.125 5.125 C2.08375 6.07375 2.0425 7.0225 2 8 C0.68 7.67 -0.64 7.34 -2 7 C-2.33 5.02 -2.66 3.04 -3 1 C-2.01 0.67 -1.02 0.34 0 0 Z " fill="#6C6C6C" transform="translate(398,451)"/>
<path d="M0 0 C2 2 2 2 2.125 5.125 C2.08375 6.07375 2.0425 7.0225 2 8 C0.68 7.67 -0.64 7.34 -2 7 C-2.33 5.02 -2.66 3.04 -3 1 C-2.01 0.67 -1.02 0.34 0 0 Z " fill="#6C6C6C" transform="translate(188,451)"/>
<path d="M0 0 C1.65 0.33 3.3 0.66 5 1 C4.67 2.32 4.34 3.64 4 5 C3.01 5 2.02 5 1 5 C1.66 4.01 2.32 3.02 3 2 C2.34 2 1.68 2 1 2 C1 2.66 1 3.32 1 4 C0.34 4 -0.32 4 -1 4 C-0.67 2.68 -0.34 1.36 0 0 Z " fill="#5B5B5B" transform="translate(351,138)"/>
<path d="M0 0 C1.98 0.495 1.98 0.495 4 1 C4 4 4 4 3 7 C1.68 7 0.36 7 -1 7 C-0.67 6.34 -0.34 5.68 0 5 C0.66 5.33 1.32 5.66 2 6 C2 5.34 2 4.68 2 4 C1.01 3.67 0.02 3.34 -1 3 C-0.67 2.01 -0.34 1.02 0 0 Z " fill="#414141" transform="translate(86,70)"/>
<path d="M0 0 C1.98 0.495 1.98 0.495 4 1 C3.34 2.98 2.68 4.96 2 7 C1.01 7 0.02 7 -1 7 C-0.67 4.69 -0.34 2.38 0 0 Z " fill="#7A7A7A" transform="translate(133,70)"/>
<path d="M0 0 C0.66 0 1.32 0 2 0 C3.125 6.75 3.125 6.75 2 9 C1.34 9 0.68 9 0 9 C0 6.03 0 3.06 0 0 Z " fill="#747474" transform="translate(589,585)"/>
<path d="M0 0 C0.66 0 1.32 0 2 0 C3.125 6.75 3.125 6.75 2 9 C1.34 9 0.68 9 0 9 C0 6.03 0 3.06 0 0 Z " fill="#747474" transform="translate(384,585)"/>
<path d="M0 0 C0.66 0 1.32 0 2 0 C3.125 6.75 3.125 6.75 2 9 C1.34 9 0.68 9 0 9 C0 6.03 0 3.06 0 0 Z " fill="#747474" transform="translate(174,585)"/>
<path d="M0 0 C0.66 0 1.32 0 2 0 C3.125 6.75 3.125 6.75 2 9 C1.34 9 0.68 9 0 9 C0 6.03 0 3.06 0 0 Z " fill="#747474" transform="translate(594,464)"/>
<path d="M0 0 C0.66 0 1.32 0 2 0 C3.125 6.75 3.125 6.75 2 9 C1.34 9 0.68 9 0 9 C0 6.03 0 3.06 0 0 Z " fill="#747474" transform="translate(384,464)"/>
<path d="M0 0 C0.66 0 1.32 0 2 0 C3.125 6.75 3.125 6.75 2 9 C1.34 9 0.68 9 0 9 C0 6.03 0 3.06 0 0 Z " fill="#747474" transform="translate(174,464)"/>
<path d="M0 0 C2.31 0 4.62 0 7 0 C7 0.99 7 1.98 7 3 C4.69 3 2.38 3 0 3 C0 2.01 0 1.02 0 0 Z " fill="#FF6D6D" transform="translate(483,360)"/>
<path d="M0 0 C2.31 0 4.62 0 7 0 C7 0.99 7 1.98 7 3 C4.69 3 2.38 3 0 3 C0 2.01 0 1.02 0 0 Z " fill="#FF6D6D" transform="translate(279,360)"/>
<path d="M0 0 C2.31 0 4.62 0 7 0 C7 0.99 7 1.98 7 3 C4.69 3 2.38 3 0 3 C0 2.01 0 1.02 0 0 Z " fill="#FF6D6D" transform="translate(695,170)"/>
<path d="M0 0 C2.31 0 4.62 0 7 0 C7 0.99 7 1.98 7 3 C4.69 3 2.38 3 0 3 C0 2.01 0 1.02 0 0 Z " fill="#FF6D6D" transform="translate(491,170)"/>
<path d="M0 0 C2.31 0 4.62 0 7 0 C7 0.99 7 1.98 7 3 C4.69 3 2.38 3 0 3 C0 2.01 0 1.02 0 0 Z " fill="#FF6D6D" transform="translate(275,170)"/>
<path d="M0 0 C0.99 0 1.98 0 3 0 C3 2.31 3 4.62 3 7 C2.01 7 1.02 7 0 7 C0 4.69 0 2.38 0 0 Z " fill="#919191" transform="translate(519,143)"/>
<path d="M0 0 C0.99 0 1.98 0 3 0 C3 2.31 3 4.62 3 7 C2.01 7 1.02 7 0 7 C0 4.69 0 2.38 0 0 Z " fill="#919191" transform="translate(506,143)"/>
<path d="M0 0 C0.99 0 1.98 0 3 0 C3 2.31 3 4.62 3 7 C2.01 7 1.02 7 0 7 C0 4.69 0 2.38 0 0 Z " fill="#919191" transform="translate(309,143)"/>
<path d="M0 0 C0.99 0 1.98 0 3 0 C3 2.31 3 4.62 3 7 C2.01 7 1.02 7 0 7 C0 4.69 0 2.38 0 0 Z " fill="#919191" transform="translate(296,143)"/>
<path d="M0 0 C0.99 0 1.98 0 3 0 C3 2.31 3 4.62 3 7 C2.01 7 1.02 7 0 7 C0 4.69 0 2.38 0 0 Z " fill="#919191" transform="translate(99,143)"/>
<path d="M0 0 C0.99 0 1.98 0 3 0 C3 2.31 3 4.62 3 7 C2.01 7 1.02 7 0 7 C0 4.69 0 2.38 0 0 Z " fill="#919191" transform="translate(86,143)"/>
<path d="M0 0 C0.99 0 1.98 0 3 0 C3 2.97 3 5.94 3 9 C2.34 9 1.68 9 1 9 C0.67 6.03 0.34 3.06 0 0 Z " fill="#5B5B5B" transform="translate(67,28)"/>
<path d="M0 0 C3.125 0.375 3.125 0.375 6 1 C6 1.66 6 2.32 6 3 C3.69 3 1.38 3 -1 3 C-1.33 4.32 -1.66 5.64 -2 7 C-2.125 4.625 -2.125 4.625 -2 2 C-1.34 1.34 -0.68 0.68 0 0 Z " fill="#4D4D4D" transform="translate(544,571)"/>
<path d="M0 0 C3.125 0.375 3.125 0.375 6 1 C6 1.66 6 2.32 6 3 C3.69 3 1.38 3 -1 3 C-1.33 4.32 -1.66 5.64 -2 7 C-2.125 4.625 -2.125 4.625 -2 2 C-1.34 1.34 -0.68 0.68 0 0 Z " fill="#4D4D4D" transform="translate(339,571)"/>
<path d="M0 0 C3.125 0.375 3.125 0.375 6 1 C6 1.66 6 2.32 6 3 C3.69 3 1.38 3 -1 3 C-1.33 4.32 -1.66 5.64 -2 7 C-2.125 4.625 -2.125 4.625 -2 2 C-1.34 1.34 -0.68 0.68 0 0 Z " fill="#4D4D4D" transform="translate(129,571)"/>
<path d="M0 0 C2.0625 0.4375 2.0625 0.4375 4 1 C4 1.99 4 2.98 4 4 C2.68 4 1.36 4 0 4 C-0.33 4.66 -0.66 5.32 -1 6 C-1.042721 4.33388095 -1.04063832 2.66617115 -1 1 C-0.67 0.67 -0.34 0.34 0 0 Z " fill="#3B3B3B" transform="translate(612,452)"/>
<path d="M0 0 C2.0625 0.4375 2.0625 0.4375 4 1 C4 1.99 4 2.98 4 4 C2.68 4 1.36 4 0 4 C-0.33 4.66 -0.66 5.32 -1 6 C-1.042721 4.33388095 -1.04063832 2.66617115 -1 1 C-0.67 0.67 -0.34 0.34 0 0 Z " fill="#3B3B3B" transform="translate(402,452)"/>
<path d="M0 0 C2.0625 0.4375 2.0625 0.4375 4 1 C4 1.99 4 2.98 4 4 C2.68 4 1.36 4 0 4 C-0.33 4.66 -0.66 5.32 -1 6 C-1.042721 4.33388095 -1.04063832 2.66617115 -1 1 C-0.67 0.67 -0.34 0.34 0 0 Z " fill="#3B3B3B" transform="translate(192,452)"/>
<path d="M0 0 C1.98 0 3.96 0 6 0 C6.33 0.99 6.66 1.98 7 3 C4.69 3 2.38 3 0 3 C0 2.01 0 1.02 0 0 Z " fill="#EA5454" transform="translate(291,360)"/>
<path d="M0 0 C0.99 0 1.98 0 3 0 C3 2.31 3 4.62 3 7 C2.01 6.67 1.02 6.34 0 6 C0 4.02 0 2.04 0 0 Z " fill="#FF6868" transform="translate(70,353)"/>
<path d="M0 0 C0.99 0 1.98 0 3 0 C3 2.31 3 4.62 3 7 C2.01 6.67 1.02 6.34 0 6 C0 4.02 0 2.04 0 0 Z " fill="#FF6868" transform="translate(700,345)"/>
<path d="M0 0 C0.99 0 1.98 0 3 0 C3 2.31 3 4.62 3 7 C2.01 6.67 1.02 6.34 0 6 C0 4.02 0 2.04 0 0 Z " fill="#FF6868" transform="translate(70,341)"/>
<path d="M0 0 C0.99 0 1.98 0 3 0 C3 2.31 3 4.62 3 7 C2.01 6.67 1.02 6.34 0 6 C0 4.02 0 2.04 0 0 Z " fill="#FF6868" transform="translate(700,333)"/>
<path d="M0 0 C0.99 0 1.98 0 3 0 C3 2.31 3 4.62 3 7 C2.01 6.67 1.02 6.34 0 6 C0 4.02 0 2.04 0 0 Z " fill="#FF6868" transform="translate(70,329)"/>
<path d="M0 0 C0.99 0 1.98 0 3 0 C3 2.31 3 4.62 3 7 C2.01 6.67 1.02 6.34 0 6 C0 4.02 0 2.04 0 0 Z " fill="#FF6868" transform="translate(700,321)"/>
<path d="M0 0 C0.99 0 1.98 0 3 0 C3 2.31 3 4.62 3 7 C2.01 6.67 1.02 6.34 0 6 C0 4.02 0 2.04 0 0 Z " fill="#FF6868" transform="translate(70,317)"/>
<path d="M0 0 C0.99 0 1.98 0 3 0 C3 2.31 3 4.62 3 7 C2.01 6.67 1.02 6.34 0 6 C0 4.02 0 2.04 0 0 Z " fill="#FF6868" transform="translate(700,309)"/>
<path d="M0 0 C0.99 0 1.98 0 3 0 C3 2.31 3 4.62 3 7 C2.01 6.67 1.02 6.34 0 6 C0 4.02 0 2.04 0 0 Z " fill="#FF6868" transform="translate(70,305)"/>
<path d="M0 0 C0.99 0 1.98 0 3 0 C3 2.31 3 4.62 3 7 C2.01 6.67 1.02 6.34 0 6 C0 4.02 0 2.04 0 0 Z " fill="#FF6868" transform="translate(700,297)"/>
<path d="M0 0 C0.99 0 1.98 0 3 0 C3 2.31 3 4.62 3 7 C2.01 6.67 1.02 6.34 0 6 C0 4.02 0 2.04 0 0 Z " fill="#FF6868" transform="translate(70,293)"/>
<path d="M0 0 C0.99 0 1.98 0 3 0 C3 2.31 3 4.62 3 7 C2.01 6.67 1.02 6.34 0 6 C0 4.02 0 2.04 0 0 Z " fill="#FF6868" transform="translate(700,285)"/>
<path d="M0 0 C0.99 0 1.98 0 3 0 C3 2.31 3 4.62 3 7 C2.01 6.67 1.02 6.34 0 6 C0 4.02 0 2.04 0 0 Z " fill="#FF6868" transform="translate(70,281)"/>
<path d="M0 0 C0.99 0 1.98 0 3 0 C3 2.31 3 4.62 3 7 C2.01 6.67 1.02 6.34 0 6 C0 4.02 0 2.04 0 0 Z " fill="#FF6868" transform="translate(700,273)"/>
<path d="M0 0 C0.99 0 1.98 0 3 0 C3 2.31 3 4.62 3 7 C2.01 6.67 1.02 6.34 0 6 C0 4.02 0 2.04 0 0 Z " fill="#FF6868" transform="translate(70,269)"/>
<path d="M0 0 C0.99 0 1.98 0 3 0 C3 2.31 3 4.62 3 7 C2.01 6.67 1.02 6.34 0 6 C0 4.02 0 2.04 0 0 Z " fill="#FF6868" transform="translate(700,261)"/>
<path d="M0 0 C0.99 0 1.98 0 3 0 C3 2.31 3 4.62 3 7 C2.01 6.67 1.02 6.34 0 6 C0 4.02 0 2.04 0 0 Z " fill="#FF6868" transform="translate(70,257)"/>
<path d="M0 0 C0.99 0 1.98 0 3 0 C3 2.31 3 4.62 3 7 C2.01 6.67 1.02 6.34 0 6 C0 4.02 0 2.04 0 0 Z " fill="#FF6868" transform="translate(700,249)"/>
<path d="M0 0 C0.99 0 1.98 0 3 0 C3 2.31 3 4.62 3 7 C2.01 6.67 1.02 6.34 0 6 C0 4.02 0 2.04 0 0 Z " fill="#FF6868" transform="translate(70,245)"/>
<path d="M0 0 C0.99 0 1.98 0 3 0 C3 2.31 3 4.62 3 7 C2.01 6.67 1.02 6.34 0 6 C0 4.02 0 2.04 0 0 Z " fill="#FF6868" transform="translate(700,237)"/>
<path d="M0 0 C0.99 0 1.98 0 3 0 C3 2.31 3 4.62 3 7 C2.01 6.67 1.02 6.34 0 6 C0 4.02 0 2.04 0 0 Z " fill="#FF6868" transform="translate(70,233)"/>
<path d="M0 0 C0.99 0 1.98 0 3 0 C3 2.31 3 4.62 3 7 C2.01 6.67 1.02 6.34 0 6 C0 4.02 0 2.04 0 0 Z " fill="#FF6868" transform="translate(700,225)"/>
<path d="M0 0 C0.99 0 1.98 0 3 0 C3 2.31 3 4.62 3 7 C2.01 6.67 1.02 6.34 0 6 C0 4.02 0 2.04 0 0 Z " fill="#FF6868" transform="translate(70,221)"/>
<path d="M0 0 C0.99 0 1.98 0 3 0 C3 2.31 3 4.62 3 7 C2.01 6.67 1.02 6.34 0 6 C0 4.02 0 2.04 0 0 Z " fill="#FF6868" transform="translate(700,213)"/>
<path d="M0 0 C0.66 0.33 1.32 0.66 2 1 C-1.465 3.97 -1.465 3.97 -5 7 C-5.66 6.34 -6.32 5.68 -7 5 C-6.67 4.01 -6.34 3.02 -6 2 C-4.68 2 -3.36 2 -2 2 C-1.34 1.34 -0.68 0.68 0 0 Z " fill="#2C9C50" transform="translate(537,209)"/>
<path d="M0 0 C0.66 0.33 1.32 0.66 2 1 C-1.465 3.97 -1.465 3.97 -5 7 C-5.66 6.34 -6.32 5.68 -7 5 C-6.67 4.01 -6.34 3.02 -6 2 C-4.68 2 -3.36 2 -2 2 C-1.34 1.34 -0.68 0.68 0 0 Z " fill="#2C9C50" transform="translate(327,209)"/>
<path d="M0 0 C0.66 0.33 1.32 0.66 2 1 C-1.465 3.97 -1.465 3.97 -5 7 C-5.66 6.34 -6.32 5.68 -7 5 C-6.67 4.01 -6.34 3.02 -6 2 C-4.68 2 -3.36 2 -2 2 C-1.34 1.34 -0.68 0.68 0 0 Z " fill="#2C9C50" transform="translate(117,209)"/>
<path d="M0 0 C0.99 0 1.98 0 3 0 C3 2.31 3 4.62 3 7 C2.01 6.67 1.02 6.34 0 6 C0 4.02 0 2.04 0 0 Z " fill="#FF6868" transform="translate(70,209)"/>
<path d="M0 0 C0.99 0 1.98 0 3 0 C3 2.31 3 4.62 3 7 C2.01 6.67 1.02 6.34 0 6 C0 4.02 0 2.04 0 0 Z " fill="#FF6868" transform="translate(700,201)"/>
<path d="M0 0 C0.99 0 1.98 0 3 0 C3 2.31 3 4.62 3 7 C2.01 6.67 1.02 6.34 0 6 C0 4.02 0 2.04 0 0 Z " fill="#FF6868" transform="translate(70,197)"/>
<path d="M0 0 C0.99 0 1.98 0 3 0 C3 2.31 3 4.62 3 7 C2.01 6.67 1.02 6.34 0 6 C0 4.02 0 2.04 0 0 Z " fill="#FF6868" transform="translate(700,189)"/>
<path d="M0 0 C0.99 0 1.98 0 3 0 C3 2.31 3 4.62 3 7 C2.01 6.67 1.02 6.34 0 6 C0 4.02 0 2.04 0 0 Z " fill="#FF6868" transform="translate(70,185)"/>
<path d="M0 0 C0.99 0 1.98 0 3 0 C3 2.31 3 4.62 3 7 C2.01 6.67 1.02 6.34 0 6 C0 4.02 0 2.04 0 0 Z " fill="#FF6868" transform="translate(700,177)"/>
<path d="M0 0 C1.98 0 3.96 0 6 0 C6 0.99 6 1.98 6 3 C3.69 3 1.38 3 -1 3 C-0.67 2.01 -0.34 1.02 0 0 Z " fill="#F66060" transform="translate(480,170)"/>
<path d="M0 0 C0.33 0.66 0.66 1.32 1 2 C2.32 1.67 3.64 1.34 5 1 C5 1.66 5 2.32 5 3 C3.68 3 2.36 3 1 3 C1 3.66 1 4.32 1 5 C2.32 4.67 3.64 4.34 5 4 C4.67 4.66 4.34 5.32 4 6 C2.35 5.67 0.7 5.34 -1 5 C-0.67 3.35 -0.34 1.7 0 0 Z " fill="#2C2C2C" transform="translate(79,71)"/>
<path d="M0 0 C1.32 0 2.64 0 4 0 C4 1.65 4 3.3 4 5 C1.69 5 -0.62 5 -3 5 C-2.67 4.34 -2.34 3.68 -2 3 C-1.01 3 -0.02 3 1 3 C1.33 2.34 1.66 1.68 2 1 C1.34 0.67 0.68 0.34 0 0 Z " fill="#2C2C2C" transform="translate(546,575)"/>
<path d="M0 0 C1.32 0 2.64 0 4 0 C4 1.65 4 3.3 4 5 C1.69 5 -0.62 5 -3 5 C-2.67 4.34 -2.34 3.68 -2 3 C-1.01 3 -0.02 3 1 3 C1.33 2.34 1.66 1.68 2 1 C1.34 0.67 0.68 0.34 0 0 Z " fill="#2C2C2C" transform="translate(341,575)"/>
<path d="M0 0 C1.32 0 2.64 0 4 0 C4 1.65 4 3.3 4 5 C1.69 5 -0.62 5 -3 5 C-2.67 4.34 -2.34 3.68 -2 3 C-1.01 3 -0.02 3 1 3 C1.33 2.34 1.66 1.68 2 1 C1.34 0.67 0.68 0.34 0 0 Z " fill="#2C2C2C" transform="translate(131,575)"/>
<path d="M0 0 C2.475 0.99 2.475 0.99 5 2 C5 2.99 5 3.98 5 5 C3.35 4.67 1.7 4.34 0 4 C0 2.68 0 1.36 0 0 Z " fill="#939A91" transform="translate(550,207)"/>
<path d="M0 0 C2.475 0.99 2.475 0.99 5 2 C5 2.99 5 3.98 5 5 C3.35 4.67 1.7 4.34 0 4 C0 2.68 0 1.36 0 0 Z " fill="#939A91" transform="translate(340,207)"/>
<path d="M0 0 C2.475 0.99 2.475 0.99 5 2 C5 2.99 5 3.98 5 5 C3.35 4.67 1.7 4.34 0 4 C0 2.68 0 1.36 0 0 Z " fill="#939A91" transform="translate(130,207)"/>
<path d="M0 0 C1.65 0 3.3 0 5 0 C4.67 1.65 4.34 3.3 4 5 C2.68 5 1.36 5 0 5 C0 3.35 0 1.7 0 0 Z " fill="#DADADA" transform="translate(110,71)"/>
<path d="M0 0 C0.66 0.33 1.32 0.66 2 1 C1.34 2.32 0.68 3.64 0 5 C-1.32 5 -2.64 5 -4 5 C-4 4.01 -4 3.02 -4 2 C-2.68 2 -1.36 2 0 2 C0 1.34 0 0.68 0 0 Z " fill="#888888" transform="translate(616,454)"/>
<path d="M0 0 C0.66 0.33 1.32 0.66 2 1 C1.34 2.32 0.68 3.64 0 5 C-1.32 5 -2.64 5 -4 5 C-4 4.01 -4 3.02 -4 2 C-2.68 2 -1.36 2 0 2 C0 1.34 0 0.68 0 0 Z " fill="#888888" transform="translate(406,454)"/>
<path d="M0 0 C0.66 0.33 1.32 0.66 2 1 C1.34 2.32 0.68 3.64 0 5 C-1.32 5 -2.64 5 -4 5 C-4 4.01 -4 3.02 -4 2 C-2.68 2 -1.36 2 0 2 C0 1.34 0 0.68 0 0 Z " fill="#888888" transform="translate(196,454)"/>
<path d="M0 0 C2.475 0.99 2.475 0.99 5 2 C4.67 3.65 4.34 5.3 4 7 C3.34 7 2.68 7 2 7 C1.34 4.69 0.68 2.38 0 0 Z " fill="#595D57" transform="translate(573,205)"/>
<path d="M0 0 C2.475 0.99 2.475 0.99 5 2 C4.67 3.65 4.34 5.3 4 7 C3.34 7 2.68 7 2 7 C1.34 4.69 0.68 2.38 0 0 Z " fill="#595D57" transform="translate(363,205)"/>
<path d="M0 0 C2.475 0.99 2.475 0.99 5 2 C4.67 3.65 4.34 5.3 4 7 C3.34 7 2.68 7 2 7 C1.34 4.69 0.68 2.38 0 0 Z " fill="#595D57" transform="translate(153,205)"/>
</svg>
